<?xml version="1.0" encoding="UTF-8"?>
<svg version="1.1" xmlns="http://www.w3.org/2000/svg" width="500" height="500">
<path d="M0 0 C2.14627342 0.00315094 4.29115309 -0.02031341 6.43725586 -0.0456543 C21.32114658 -0.11544107 33.67412983 3.57213942 44.66186523 14.06567383 C48.51674172 18.11023471 51.4530515 22.27267844 54.09545898 27.18676758 C56.45800189 31.19793856 59.40817537 32.96972748 63.34936523 35.31567383 C67.49954781 38.18127608 69.71542064 40.49983712 71.34936523 45.31567383 C72.26293539 52.44352889 71.95791188 57.82159724 67.63842773 63.69458008 C67.21303711 64.22954102 66.78764648 64.76450195 66.34936523 65.31567383 C63.98573805 68.12456484 63.98573805 68.12456484 64.81030273 71.17895508 C65.11194336 72.31719727 65.41358398 73.45543945 65.72436523 74.62817383 C69.23203266 89.8646042 67.72272151 106.3332726 60.34936523 120.31567383 C55.68938109 127.75046671 50.08617578 134.65507576 43.34936523 140.31567383 C42.68936523 140.31567383 42.02936523 140.31567383 41.34936523 140.31567383 C41.34936523 140.97567383 41.34936523 141.63567383 41.34936523 142.31567383 C39.38061523 143.82348633 39.38061523 143.82348633 36.84936523 145.44067383 C36.01405273 145.97950195 35.17874023 146.51833008 34.31811523 147.07348633 C33.66842773 147.4834082 33.01874023 147.89333008 32.34936523 148.31567383 C34.40249234 150.36880093 35.5439182 150.91694664 38.20874023 151.90161133 C38.98813965 152.19076416 39.76753906 152.47991699 40.57055664 152.77783203 C41.40506348 153.07906982 42.23957031 153.38030762 43.09936523 153.69067383 C43.95320801 154.00157959 44.80705078 154.31248535 45.68676758 154.6328125 C55.73234669 158.24120859 65.89202497 161.15208619 76.34936523 163.31567383 C76.25655273 161.58317383 76.25655273 161.58317383 76.16186523 159.81567383 C76.18756849 152.5287999 79.19190589 145.49835302 84.34936523 140.31567383 C87.23321674 138.38144414 90.21631332 136.80525843 93.34936523 135.31567383 C94.00936523 134.98567383 94.66936523 134.65567383 95.34936523 134.31567383 C104.1885225 133.31346455 109.4783915 135.63576893 116.59936523 140.56567383 C123.94068356 147.90699215 124.24307543 156.04457553 124.41186523 166.00317383 C124.39124023 166.76629883 124.37061523 167.52942383 124.34936523 168.31567383 C125.20208008 168.73526367 125.20208008 168.73526367 126.07202148 169.16333008 C136.75145891 174.70807973 142.53600164 181.87558304 146.34936523 193.31567383 C147.32296193 205.22066632 146.5617246 213.85080657 140.34936523 224.31567383 C139.68936523 224.31567383 139.02936523 224.31567383 138.34936523 224.31567383 C138.10444336 224.91250977 137.85952148 225.5093457 137.60717773 226.12426758 C134.08174557 232.26640251 125.83147656 235.33808054 119.34936523 237.31567383 C118.02936523 237.31567383 116.70936523 237.31567383 115.34936523 237.31567383 C115.07845938 240.10772467 114.8077813 242.89979733 114.53735352 245.69189453 C114.27976548 248.34933885 114.02163984 251.00672665 113.76293945 253.6640625 C112.99718843 261.54359425 112.24355169 269.42410033 111.50837708 277.30654907 C109.5384354 298.41798946 107.55021059 319.51830585 104.97436523 340.56567383 C102.76302267 358.63523828 100.7089019 376.71999822 98.72436523 394.81567383 C98.64776421 395.51320015 98.57116318 396.21072647 98.49224091 396.92938995 C96.70069303 413.25254603 94.96044579 429.57496298 93.59936523 445.94067383 C92.84612182 454.96504474 92.02098635 463.959759 90.84936523 472.94067383 C90.74269531 473.79483887 90.63602539 474.64900391 90.52612305 475.52905273 C89.62057113 482.02326746 88.0325495 487.79089742 84.34936523 493.31567383 C83.68936523 493.31567383 83.02936523 493.31567383 82.34936523 493.31567383 C82.34936523 493.97567383 82.34936523 494.63567383 82.34936523 495.31567383 C75.05625216 500.71797981 68.25791339 501.43055707 59.34936523 500.31567383 C53.21207683 498.66220469 48.67978745 494.68253256 45.34936523 489.31567383 C41.07497629 478.38210265 43.47598982 465.50186715 44.53686523 454.06567383 C44.60249664 453.33839081 44.66812805 452.61110779 44.73574829 451.86178589 C45.86985187 439.344103 47.31093159 426.87270606 48.84106445 414.39816284 C51.17458133 395.33162807 53.2318015 376.23691742 55.26898575 357.1369133 C55.53347895 354.65988697 55.79898735 352.18297146 56.06478882 349.70608521 C57.72922317 334.185443 59.36898248 318.67047484 60.65788269 303.1131897 C61.46657036 293.54481168 62.64333136 284.02828706 63.84936523 274.50317383 C64.27824827 271.08022003 64.70451327 267.65694348 65.13061523 264.23364258 C65.28554443 262.99914871 65.28554443 262.99914871 65.44360352 261.73971558 C65.96727074 257.53590641 66.46368857 253.33104645 66.91577148 249.11889648 C67.00499878 248.28820145 67.09422607 247.45750641 67.18615723 246.60163879 C67.35361132 245.02282707 67.51760177 243.44364293 67.6776123 241.86405945 C68.24071766 236.53296898 68.24071766 236.53296898 69.34936523 234.31567383 C68.75438232 234.27031494 68.15939941 234.22495605 67.54638672 234.17822266 C61.02701529 233.61272497 54.78113499 232.48521535 48.41186523 231.00317383 C47.45054687 230.78169678 46.48922852 230.56021973 45.4987793 230.33203125 C28.30291559 226.26922418 28.30291559 226.26922418 24.34936523 222.31567383 C24.22436523 218.69067383 24.22436523 218.69067383 24.34936523 215.31567383 C16.48021077 212.69999476 16.48021077 212.69999476 8.34936523 211.31567383 C7.68936523 211.97567383 7.02936523 212.63567383 6.34936523 213.31567383 C-1.4908749 214.18681162 -6.75569623 211.92423979 -13.65063477 208.31567383 C-14.34930664 209.32629883 -15.04797852 210.33692383 -15.76782227 211.37817383 C-16.68674358 212.69091856 -17.60603349 214.00340533 -18.52563477 215.31567383 C-18.98583008 215.9834082 -19.44602539 216.65114258 -19.92016602 217.33911133 C-21.11369423 219.03426734 -22.37753816 220.67943163 -23.65063477 222.31567383 C-24.31063477 222.31567383 -24.97063477 222.31567383 -25.65063477 222.31567383 C-25.90844727 223.03754883 -26.16625977 223.75942383 -26.43188477 224.50317383 C-27.71405544 227.46202923 -29.22771125 229.73076025 -31.15063477 232.31567383 C-31.85704102 233.26958008 -32.56344727 234.22348633 -33.29125977 235.20629883 C-34.9355443 237.37326984 -36.58844667 239.52942352 -38.26000977 241.67504883 C-38.69893555 242.2396582 -39.13786133 242.80426758 -39.59008789 243.38598633 C-40.83903998 244.98672969 -42.0961937 246.58106382 -43.35375977 248.17504883 C-45.75454417 251.45775404 -47.69927994 254.7531086 -49.65063477 258.31567383 C-50.31063477 258.31567383 -50.97063477 258.31567383 -51.65063477 258.31567383 C-52.31063477 259.96567383 -52.97063477 261.61567383 -53.65063477 263.31567383 C-54.31063477 263.31567383 -54.97063477 263.31567383 -55.65063477 263.31567383 C-55.85688477 263.97567383 -56.06313477 264.63567383 -56.27563477 265.31567383 C-58.16216347 269.43173646 -60.85631455 272.77444412 -63.65063477 276.31567383 C-62.09431854 280.48854669 -59.01887369 282.79825554 -55.65063477 285.50317383 C-55.10407227 285.95370117 -54.55750977 286.40422852 -53.99438477 286.8684082 C-50.98556931 289.33571358 -50.98556931 289.33571358 -47.65063477 291.31567383 C-47.65063477 291.97567383 -47.65063477 292.63567383 -47.65063477 293.31567383 C-47.08860352 293.57348633 -46.52657227 293.83129883 -45.94750977 294.09692383 C-43.38358898 295.45737159 -41.19837111 297.04356344 -38.90063477 298.81567383 C-38.10141602 299.42411133 -37.30219727 300.03254883 -36.47875977 300.65942383 C-35.87547852 301.20598633 -35.27219727 301.75254883 -34.65063477 302.31567383 C-34.65063477 302.97567383 -34.65063477 303.63567383 -34.65063477 304.31567383 C-34.05250977 304.60442383 -33.45438477 304.89317383 -32.83813477 305.19067383 C-30.65063477 306.31567383 -30.65063477 306.31567383 -27.65063477 308.31567383 C-27.65063477 308.97567383 -27.65063477 309.63567383 -27.65063477 310.31567383 C-26.99063477 310.31567383 -26.33063477 310.31567383 -25.65063477 310.31567383 C-24.02954102 312.18676758 -24.02954102 312.18676758 -22.21313477 314.75317383 C-21.61629883 315.57688477 -21.01946289 316.4005957 -20.40454102 317.24926758 C-16.02239719 324.91069943 -15.206159 332.08522972 -15.21826172 340.80224609 C-15.20297424 342.47207802 -15.20297424 342.47207802 -15.18737793 344.17564392 C-15.15736397 347.82784128 -15.14799948 351.47977584 -15.13891602 355.13208008 C-15.12206079 357.67513391 -15.10390941 360.21817945 -15.08451843 362.76121521 C-15.04194134 368.75329027 -15.01236396 374.74529099 -14.98919505 380.73746103 C-14.9620636 387.56470543 -14.91815735 394.39181057 -14.87290633 401.21895516 C-14.78027215 415.25111889 -14.70849475 429.28332667 -14.65063477 443.31567383 C-13.89155823 443.44328094 -13.13248169 443.57088806 -12.35040283 443.70236206 C-11.35667664 443.87494537 -10.36295044 444.04752869 -9.33911133 444.2253418 C-8.35315979 444.39419891 -7.36720825 444.56305603 -6.35137939 444.73703003 C1.7162746 446.46555257 8.84028587 453.63600041 13.34936523 460.31567383 C17.09321261 467.67781272 18.48859383 474.69591732 18.53686523 482.94067383 C18.55104492 484.04668945 18.56522461 485.15270508 18.57983398 486.29223633 C18.35144097 489.28844294 18.08831755 490.89101476 16.34936523 493.31567383 C13.52549107 495.01450899 11.4206297 495.56702509 8.14356995 495.57637024 C7.31229584 495.58345505 6.48102173 495.59053986 5.6245575 495.59783936 C4.72107071 495.59536194 3.81758392 495.59288452 2.88671875 495.59033203 C1.92856262 495.59544296 0.97040649 495.60055389 -0.01678467 495.6058197 C-3.18516276 495.61972367 -6.35332353 495.61875834 -9.52172852 495.61645508 C-11.72363872 495.62034149 -13.92554818 495.62467605 -16.12745667 495.62944031 C-20.74336171 495.6369042 -25.35919028 495.63660994 -29.97509766 495.63134766 C-35.89126505 495.62555208 -41.80711949 495.64248553 -47.72323513 495.66569233 C-52.27083671 495.68042138 -56.81836276 495.6813025 -61.36598396 495.6781826 C-63.54727867 495.6786962 -65.72857757 495.68394123 -67.90984917 495.69399452 C-70.95963784 495.70632565 -74.00881493 495.69958701 -77.05859375 495.68798828 C-77.9600563 495.69563202 -78.86151886 495.70327576 -79.79029846 495.71115112 C-84.51883234 495.67138652 -87.88001381 495.51240843 -91.65063477 492.31567383 C-92.68469764 489.21348521 -92.7560106 487.15252059 -92.72137451 483.90380859 C-92.71237625 482.77967056 -92.70337799 481.65553253 -92.69410706 480.49732971 C-92.67943893 479.26304733 -92.66477081 478.02876495 -92.6496582 476.75708008 C-92.6327991 474.76217877 -92.6159634 472.76727714 -92.60000372 470.77236843 C-92.5884856 469.35610169 -92.57634498 467.93983989 -92.56362772 466.52358341 C-92.51743468 461.31234989 -92.49214592 456.10131078 -92.47955322 450.88989258 C-92.47680142 449.75446424 -92.47680142 449.75446424 -92.47399402 448.59609795 C-92.46689844 445.47267782 -92.46059367 442.34925687 -92.45489645 439.22583389 C-92.43809852 430.36959001 -92.40044325 421.51463713 -92.29760742 412.65893555 C-92.21601909 405.62165397 -92.18076216 398.58583968 -92.19912171 391.54808521 C-92.20712925 387.82689897 -92.19241255 384.10904665 -92.12151337 380.38845825 C-90.9774912 364.30137614 -90.9774912 364.30137614 -96.57214355 350.02270508 C-99.63198951 347.1013629 -102.84682882 345.1382062 -106.65063477 343.31567383 C-107.31063477 342.98567383 -107.97063477 342.65567383 -108.65063477 342.31567383 C-108.67250854 343.73662354 -108.67250854 343.73662354 -108.69482422 345.1862793 C-108.75637056 348.74639821 -108.83060939 352.30580591 -108.91308594 355.86547852 C-108.94606432 357.39760592 -108.97417787 358.92984692 -108.99707031 360.4621582 C-109.1682538 371.62186462 -109.72458158 381.58228051 -116.02563477 391.19067383 C-116.59024414 392.0749707 -117.15485352 392.95926758 -117.73657227 393.87036133 C-119.79629959 396.50176807 -122.01089408 398.28252966 -124.65063477 400.31567383 C-125.70608394 401.45112037 -126.72847114 402.61832286 -127.71313477 403.81567383 C-131.45708937 408.2154431 -135.52197035 412.24455194 -139.65087891 416.27856445 C-142.51088708 419.02095885 -142.51088708 419.02095885 -144.65063477 422.31567383 C-145.31063477 422.31567383 -145.97063477 422.31567383 -146.65063477 422.31567383 C-146.65063477 422.97567383 -146.65063477 423.63567383 -146.65063477 424.31567383 C-147.31063477 424.31567383 -147.97063477 424.31567383 -148.65063477 424.31567383 C-148.65063477 424.97567383 -148.65063477 425.63567383 -148.65063477 426.31567383 C-149.31063477 426.31567383 -149.97063477 426.31567383 -150.65063477 426.31567383 C-150.65063477 426.97567383 -150.65063477 427.63567383 -150.65063477 428.31567383 C-151.31063477 428.31567383 -151.97063477 428.31567383 -152.65063477 428.31567383 C-152.65063477 428.97567383 -152.65063477 429.63567383 -152.65063477 430.31567383 C-154.26996413 432.02836993 -155.94679024 433.68703348 -157.65063477 435.31567383 C-158.53364258 436.19868164 -159.41665039 437.08168945 -160.32641602 437.99145508 C-162.76782227 440.43286133 -165.20922852 442.87426758 -167.65063477 445.31567383 C-166.93004883 445.86868164 -166.20946289 446.42168945 -165.46704102 446.99145508 C-154.44863298 456.08431608 -149.02388387 464.57465699 -147.21313477 478.50317383 C-147.10743164 479.27604736 -147.00172852 480.0489209 -146.89282227 480.84521484 C-146.36755931 485.8346747 -146.68257672 489.03569516 -149.65063477 493.31567383 C-152.45426951 495.05085538 -154.58265372 495.56785697 -157.85643005 495.58309937 C-158.68770416 495.59162933 -159.51897827 495.6001593 -160.3754425 495.60894775 C-161.27892929 495.60804138 -162.18241608 495.60713501 -163.11328125 495.60620117 C-164.07143738 495.6129184 -165.02959351 495.61963562 -166.01678467 495.6265564 C-169.18515198 495.64555947 -172.35330776 495.6494616 -175.52172852 495.65161133 C-177.72363879 495.65803703 -179.9255482 495.66476522 -182.12745667 495.67178345 C-186.74335714 495.68376156 -191.35918274 495.68746365 -195.97509766 495.6862793 C-201.8913412 495.68607594 -207.80710529 495.71339331 -213.72323513 495.74782372 C-218.27084054 495.7700533 -222.81832978 495.77411806 -227.36598396 495.77305984 C-229.54728919 495.77542116 -231.72859737 495.78427439 -233.90984917 495.79972458 C-236.95977325 495.81930686 -240.00865307 495.81357699 -243.05859375 495.80151367 C-243.9600563 495.81275269 -244.86151886 495.8239917 -245.79029846 495.83557129 C-249.84430168 495.79479778 -252.12953326 495.61373872 -255.70970154 493.56591797 C-257.87617028 491.05419654 -258.28080318 490.08897124 -258.29760742 486.82592773 C-258.32124863 485.50402939 -258.32124863 485.50402939 -258.34536743 484.15542603 C-258.3301857 482.73814713 -258.3301857 482.73814713 -258.31469727 481.29223633 C-258.3194809 480.31330414 -258.32426453 479.33437195 -258.32919312 478.32577515 C-258.33259321 476.25631096 -258.32338314 474.18679315 -258.30249023 472.11743164 C-258.27578399 468.95832609 -258.30220503 465.80279217 -258.33422852 462.64379883 C-258.33092331 460.63077018 -258.3245148 458.61774375 -258.31469727 456.60473633 C-258.32481842 455.66393219 -258.33493958 454.72312805 -258.34536743 453.7538147 C-258.23357642 447.45830181 -257.15609325 444.73327738 -252.65063477 440.31567383 C-251.03669773 437.93302186 -249.50843148 435.51310077 -247.98266602 433.07348633 C-247.5430957 432.4934082 -247.10352539 431.91333008 -246.65063477 431.31567383 C-245.99063477 431.31567383 -245.33063477 431.31567383 -244.65063477 431.31567383 C-244.65063477 430.65567383 -244.65063477 429.99567383 -244.65063477 429.31567383 C-243.99063477 429.31567383 -243.33063477 429.31567383 -242.65063477 429.31567383 C-242.36188477 428.55254883 -242.07313477 427.78942383 -241.77563477 427.00317383 C-240.65063477 424.31567383 -240.65063477 424.31567383 -238.65063477 421.31567383 C-237.99063477 421.31567383 -237.33063477 421.31567383 -236.65063477 421.31567383 C-236.52688477 420.71754883 -236.40313477 420.11942383 -236.27563477 419.50317383 C-235.65063477 417.31567383 -235.65063477 417.31567383 -233.65063477 414.31567383 C-232.99063477 414.31567383 -232.33063477 414.31567383 -231.65063477 414.31567383 C-231.37372803 413.72866699 -231.09682129 413.14166016 -230.81152344 412.53686523 C-229.71038384 410.42999497 -228.51748993 408.66191048 -227.07641602 406.77661133 C-226.57674316 406.11790039 -226.07707031 405.45918945 -225.56225586 404.78051758 C-225.0345459 404.09086914 -224.50683594 403.4012207 -223.96313477 402.69067383 C-219.79550992 397.20873064 -215.75510416 391.68760764 -211.95532227 385.94067383 C-211.30950195 385.13629883 -211.30950195 385.13629883 -210.65063477 384.31567383 C-209.99063477 384.31567383 -209.33063477 384.31567383 -208.65063477 384.31567383 C-208.24844727 383.48036133 -208.24844727 383.48036133 -207.83813477 382.62817383 C-206.54163981 380.10342049 -205.22587154 377.67852898 -203.65063477 375.31567383 C-202.99063477 375.31567383 -202.33063477 375.31567383 -201.65063477 375.31567383 C-201.46500977 374.65567383 -201.27938477 373.99567383 -201.08813477 373.31567383 C-199.41316768 369.82009035 -197.25187223 367.46619152 -194.59985352 364.67114258 C-188.80336848 357.66657249 -186.91519287 352.72105559 -187.09887695 343.57617188 C-187.10019119 342.0062146 -187.10019119 342.0062146 -187.10153198 340.40454102 C-187.11007796 336.96160138 -187.15381448 333.52004998 -187.19750977 330.07739258 C-187.20938932 327.67138187 -187.21889419 325.26535837 -187.22613525 322.85932922 C-187.25084827 316.53236093 -187.30469194 310.20598315 -187.36560059 303.87927246 C-187.44604218 294.97940482 -187.48715921 286.07925689 -187.5322876 277.17915344 C-187.55636949 272.44446059 -187.59150712 267.71005558 -187.63568115 262.97550964 C-187.65211153 260.79812662 -187.66849189 258.62074321 -187.68481445 256.44335938 C-187.7019902 254.99268822 -187.7019902 254.99268822 -187.71951294 253.51271057 C-187.82941206 236.21958274 -187.82941206 236.21958274 -184.83813477 228.62817383 C-184.48750977 227.72711914 -184.13688477 226.82606445 -183.77563477 225.89770508 C-182.72078144 223.47667018 -181.56802622 221.15161351 -180.33813477 218.81567383 C-178.21695146 215.45528965 -178.21695146 215.45528965 -179.65063477 212.31567383 C-180.68188477 211.75879883 -181.71313477 211.20192383 -182.77563477 210.62817383 C-191.72284507 205.75121083 -196.20954013 196.82553823 -199.26391602 187.42895508 C-201.6033882 174.64456666 -198.84635163 163.99989322 -191.90063477 153.25317383 C-188.61059572 148.51797745 -185.10525729 143.9965702 -181.41235352 139.56958008 C-179.55878925 137.30660764 -179.55878925 137.30660764 -178.04516602 134.53051758 C-177.5849707 133.79961914 -177.12477539 133.0687207 -176.65063477 132.31567383 C-175.99063477 132.31567383 -175.33063477 132.31567383 -174.65063477 132.31567383 C-174.18657227 131.14004883 -174.18657227 131.14004883 -173.71313477 129.94067383 C-172.65063477 127.31567383 -172.65063477 127.31567383 -171.65063477 125.31567383 C-170.99063477 125.31567383 -170.33063477 125.31567383 -169.65063477 125.31567383 C-169.44438477 124.63504883 -169.23813477 123.95442383 -169.02563477 123.25317383 C-167.17922674 119.30857487 -165.14108671 115.99663798 -161.65063477 113.31567383 C-159.50219727 112.99926758 -159.50219727 112.99926758 -157.21313477 113.00317383 C-154.886976 113.05321514 -154.886976 113.05321514 -152.65063477 112.31567383 C-149.79200864 109.27903802 -147.69558609 105.93872264 -145.65063477 102.31567383 C-146.00125977 101.77942383 -146.35188477 101.24317383 -146.71313477 100.69067383 C-148.0274331 97.36111804 -147.67205451 95.75884685 -146.65063477 92.31567383 C-145.02415155 89.4099675 -143.11893971 86.74833618 -141.15063477 84.06567383 C-140.60745605 83.31568115 -140.06427734 82.56568848 -139.50463867 81.79296875 C-131.29584252 70.59619013 -122.23499738 59.19832254 -107.67016602 56.83129883 C-93.54064163 55.66100935 -84.53611905 58.84957436 -73.27563477 67.19067383 C-70.87793055 68.8506229 -68.26618231 70.03696169 -65.65063477 71.31567383 C-64.29200075 72.28101905 -62.9472034 73.26844532 -61.65063477 74.31567383 C-60.18282567 71.14214774 -60.18282567 71.14214774 -59.65063477 67.31567383 C-61.87003009 64.01895966 -61.87003009 64.01895966 -64.65063477 61.31567383 C-65.80307231 57.85836119 -65.81888314 55.0830817 -65.83813477 51.44067383 C-65.85231445 50.22637695 -65.86649414 49.01208008 -65.88110352 47.76098633 C-65.66110732 44.47222962 -65.06779095 42.26201435 -63.65063477 39.31567383 C-62.99063477 39.31567383 -62.33063477 39.31567383 -61.65063477 39.31567383 C-61.65063477 38.65567383 -61.65063477 37.99567383 -61.65063477 37.31567383 C-58.07018265 34.56788499 -55.15828147 32.84598521 -50.65063477 32.31567383 C-50.46500977 31.34629883 -50.27938477 30.37692383 -50.08813477 29.37817383 C-47.23446324 19.59696866 -37.42526148 10.58028398 -28.81079102 5.71020508 C-19.18873024 1.20935086 -10.52118654 -0.03227725 0 0 Z " fill="#090909" transform="translate(305.650634765625,-0.315673828125)"/>
<path d="M0 0 C4.36234742 0.48705821 7.09235469 3.34487931 10.25 6.125 C10.8284668 6.62418945 11.40693359 7.12337891 12.00292969 7.63769531 C15.10462202 10.31981831 18.17638024 13.03579546 21.25 15.75 C23.8814535 18.07316606 26.58448379 20.24565139 29.375 22.375 C33.63614313 25.64041209 37.56979121 29.1933895 41.53125 32.8125 C43.79155685 34.81530354 46.09725574 36.6725607 48.5 38.5 C51.79314078 41.00602805 54.88068294 43.64773716 57.9375 46.4375 C63.66748974 51.66268384 69.71559865 56.42623196 75.81640625 61.20703125 C76.72261719 61.92246094 77.62882812 62.63789063 78.5625 63.375 C79.38878906 64.02210938 80.21507812 64.66921875 81.06640625 65.3359375 C83 67 83 67 84 69 C84.71285156 69.41378906 85.42570312 69.82757813 86.16015625 70.25390625 C89.69089088 72.4247981 92.45833726 75.07680689 95.4375 77.9375 C99.42756961 81.76777884 103.36356182 84.94613272 108 88 C109.84265757 89.61199773 111.6553686 91.25883051 113.4375 92.9375 C116.51520164 95.79327214 119.50575695 98.48300463 123 100.8125 C127.05984492 103.77280359 128.63479398 106.06182865 129.56321716 110.98902893 C130.20752422 115.91424364 130.13146069 120.84157808 130.11352539 125.80053711 C130.11367142 126.86469849 130.11381744 127.92885986 130.1139679 129.02526855 C130.11327388 132.52598137 130.10550545 136.02664029 130.09765625 139.52734375 C130.09579025 141.96114574 130.09436721 144.39494811 130.09336853 146.82875061 C130.08955766 153.22214807 130.07973959 159.61552268 130.06866455 166.00891113 C130.05841967 172.53783865 130.05386432 179.06676988 130.04882812 185.59570312 C130.03811602 198.39714706 130.02053081 211.19856805 130 224 C115.15 224 100.3 224 85 224 C84.98582031 217.20019531 84.97164063 210.40039062 84.95703125 203.39453125 C84.93697529 199.08783854 84.91545895 194.78125261 84.88867188 190.47460938 C84.84628935 183.63822245 84.80932921 176.80210612 84.80444336 169.96557617 C84.80016627 164.45401165 84.77175195 158.94305255 84.72656822 153.43167686 C84.71357443 151.32857476 84.70929217 149.22540027 84.71384621 147.12226295 C84.7187387 144.17695291 84.69271923 141.23342155 84.65942383 138.28833008 C84.67236229 136.98281441 84.67236229 136.98281441 84.68556213 135.65092468 C84.60200594 131.24440869 84.44627976 129.54732614 81.56742859 126.01664734 C80.72017715 125.35115372 79.87292572 124.6856601 79 124 C78.42636719 123.48695313 77.85273438 122.97390625 77.26171875 122.4453125 C76.74222656 122.00960937 76.22273438 121.57390625 75.6875 121.125 C73.227803 119.04452824 70.79095847 116.94362968 68.375 114.8125 C57.1589942 104.98493592 45.73814854 95.3496876 33.875 86.3125 C-0.97633206 59.61158528 -0.97633206 59.61158528 -8 42 C-8.45375 40.88625 -8.9075 39.7725 -9.375 38.625 C-11.33694715 27.24570654 -10.59155489 15.42488023 -4.3984375 5.41015625 C-3.00101074 3.52594813 -1.57460995 1.73731965 0 0 Z " fill="#7DD0ED" transform="translate(144,219)"/>
<path d="M0 0 C3.00828582 1.31773204 4.73996372 2.60401219 6.75 5.1875 C8.90411228 7.80359147 11.10390734 10.05738046 13.6875 12.25 C17.13021166 15.17268447 20.33248981 18.28518919 23.5 21.5 C27.83415402 25.88076578 32.257264 30.06315859 37 34 C37.721875 34.59941406 38.44375 35.19882813 39.1875 35.81640625 C50.21349911 44.79316539 61.50312047 53.18140465 74 60 C70.35702655 67.57266239 65.18764094 74.10719585 60.03198242 80.69995117 C56.61913819 85.10384629 53.44122485 89.64094873 50.3125 94.25 C46.91627821 99.25260647 43.45243469 104.12990245 39.6796875 108.859375 C36.99711301 112.27809784 34.47827427 115.81405997 31.93359375 119.3359375 C29.33066663 122.92219265 26.67327627 126.46600978 24 130 C23.34 129.67 22.68 129.34 22 129 C22 128.34 22 127.68 22 127 C21.44183594 126.75121094 20.88367188 126.50242187 20.30859375 126.24609375 C17.5995577 124.78385602 15.4303568 123.03155987 13.0625 121.0625 C12.09441406 120.25941406 11.12632812 119.45632813 10.12890625 118.62890625 C6.35210798 115.46269235 2.59150589 112.27728905 -1.1640625 109.0859375 C-4.55779856 106.20567451 -7.98187378 103.36861057 -11.4375 100.5625 C-16.34762953 96.56988372 -21.14076103 92.4529948 -25.92919922 88.31640625 C-29.91142397 84.89140608 -33.99175125 81.63856988 -38.171875 78.45703125 C-40.64064606 76.48939962 -42.80166422 74.26114537 -45 72 C-46.31175986 70.97186389 -47.6369893 69.95915568 -49 69 C-47.71042988 66.29869777 -46.29647113 63.85907346 -44.56640625 61.41796875 C-44.08768066 60.74048584 -43.60895508 60.06300293 -43.11572266 59.36499023 C-42.60315918 58.64641846 -42.0905957 57.92784668 -41.5625 57.1875 C-41.03188965 56.43992432 -40.5012793 55.69234863 -39.95458984 54.92211914 C-33.71409129 46.15376512 -27.38686927 37.4441906 -20.875 28.875 C-18.21998062 25.35573678 -15.70056461 21.74621864 -13.1875 18.125 C-12.78966309 17.55249512 -12.39182617 16.97999023 -11.98193359 16.39013672 C-9.83850657 13.28728036 -9.83850657 13.28728036 -8 10 C-7.34 10 -6.68 10 -6 10 C-5.7525 9.46375 -5.505 8.9275 -5.25 8.375 C-3.70303025 5.43575748 -1.86985631 2.74245592 0 0 Z " fill="#FC6363" transform="translate(204,138)"/>
<path d="M0 0 C3.37745506 1.60372817 5.70941696 3.42373271 8.4375 6 C12.31623593 9.56455261 16.29672536 12.83735987 20.5 16 C25.40469775 19.69608618 30.00995893 23.58387519 34.48828125 27.796875 C36.8044819 29.96890834 36.8044819 29.96890834 38.96411133 31.14903259 C42.17151469 33.12313807 44.57336853 34.63102338 45.72587585 38.32919312 C45.97585971 41.17262887 45.97852087 43.91650225 45.88671875 46.76953125 C45.88251419 47.80510666 45.87830963 48.84068207 45.87397766 49.90763855 C45.85754781 52.09400251 45.82190461 54.28029571 45.76831055 56.46606445 C45.68800836 59.79144856 45.66587462 63.11319026 45.65429688 66.43945312 C45.63102593 68.57035262 45.60444062 70.70121901 45.57421875 72.83203125 C45.56460617 73.81669876 45.55499359 74.80136627 45.54508972 75.81587219 C45.31447383 84.29403465 44.10365867 91.68212977 37.77368164 97.70288086 C36.98852173 98.40682983 36.98852173 98.40682983 36.1875 99.125 C35.10500271 100.14787163 34.02425419 101.17259731 32.9453125 102.19921875 C32.43258789 102.68052246 31.91986328 103.16182617 31.39160156 103.65771484 C29.6630867 105.32497357 28.09820545 107.09224136 26.5625 108.9375 C24.16497712 111.80283222 21.65567062 114.37568785 19 117 C18.20271484 117.79728516 17.40542969 118.59457031 16.58398438 119.41601562 C-2 138 -2 138 -4.53588867 140.44604492 C-7.06391027 142.94349273 -7.06391027 142.94349273 -9.06176758 145.87036133 C-12.31732407 150.02776893 -15.1640244 153.33531054 -20.46429443 154.57757568 C-27.52980953 155.37958327 -34.60119871 155.00226675 -41.6875 154.6875 C-43.853391 154.63224685 -46.01941778 154.58207016 -48.18554688 154.53710938 C-53.46002334 154.4166593 -58.72937186 154.23328939 -64 154 C-63.04475636 152.55575294 -62.08800406 151.11250365 -61.13061523 149.66967773 C-60.59798569 148.86586166 -60.06535614 148.06204559 -59.5165863 147.23387146 C-57.81828379 144.73233923 -55.9949916 142.38720977 -54.0625 140.0625 C-51.31517509 136.69650269 -48.76173973 133.27616865 -46.3125 129.6875 C-43.814816 126.0509172 -41.1215459 123.1215459 -38 120 C-36.23453748 117.58066247 -34.55057605 115.11238038 -32.859375 112.640625 C-31.13602013 110.19317144 -29.33232491 107.87839711 -27.4375 105.5625 C-22.74521248 99.79374652 -18.38637255 93.78615268 -14.01147461 87.77563477 C-11.51694583 84.36021057 -9.0380621 80.98941039 -6.26171875 77.796875 C-2.11196807 72.66523167 -0.62799416 68.5769626 -0.56762695 61.98486328 C-0.5574353 61.31099075 -0.54724365 60.63711823 -0.53674316 59.94282532 C-0.50676406 57.73523482 -0.49737091 55.52807927 -0.48828125 53.3203125 C-0.47142327 51.78187637 -0.45327153 50.24345393 -0.43388367 48.70504761 C-0.38649863 44.67081986 -0.35661523 40.63664759 -0.33044434 36.60223389 C-0.30058051 32.47950283 -0.25407028 28.35696271 -0.20898438 24.234375 C-0.12308221 16.15634407 -0.05567909 8.07829553 0 0 Z " fill="#70BAD4" transform="translate(135,289)"/>
<path d="M0 0 C1.17949219 -0.03996094 2.35898438 -0.07992187 3.57421875 -0.12109375 C12.98456578 1.28505006 18.98107642 8.7604359 25.3125 15.3125 C34.04750321 24.27249571 42.81584758 32.21899127 52.96875 39.51953125 C53.7421875 40.15246094 54.515625 40.78539062 55.3125 41.4375 C55.3125 42.0975 55.3125 42.7575 55.3125 43.4375 C55.96605469 43.66179687 56.61960937 43.88609375 57.29296875 44.1171875 C61.32939684 45.88214571 64.90636048 48.21342564 68.625 50.5625 C82.63132861 59.25756027 97.63271166 67.37701476 113.66796875 71.56640625 C117.67967361 72.88783931 121.47565848 74.67966337 125.3125 76.4375 C124.54746195 80.52194055 123.77437775 84.60482076 123 88.6875 C122.78666016 89.82703125 122.57332031 90.9665625 122.35351562 92.140625 C120.92496016 99.6458716 119.25098375 107.04750458 117.3125 114.4375 C116.10851562 114.3653125 114.90453125 114.293125 113.6640625 114.21875 C112.08854351 114.12496911 110.51302257 114.0312208 108.9375 113.9375 C107.74640625 113.86595703 107.74640625 113.86595703 106.53125 113.79296875 C102.42473696 113.53394667 102.42473696 113.53394667 98.3125 113.4375 C97.3225 115.4175 97.3225 115.4175 96.3125 117.4375 C90.95154723 115.84828475 85.60406027 114.24777062 80.3125 112.4375 C80.4775 111.220625 80.6425 110.00375 80.8125 108.75 C80.85792618 106.5265776 80.85792618 106.5265776 80.3125 104.4375 C77.59018909 102.16890757 75.47278868 100.94218801 72.3125 99.4375 C69.81084039 98.2115761 67.31061171 96.9831079 64.8125 95.75 C64.12430176 95.41210449 63.43610352 95.07420898 62.72705078 94.72607422 C47.61732692 87.20418779 32.64946784 77.48535043 20.1796875 66.0859375 C18.07537298 64.22815355 15.86944952 62.56017685 13.625 60.875 C10.54238217 58.5146254 8.1792273 56.18102731 5.8046875 53.0859375 C3.76628833 50.83409339 1.4454673 49.06878997 -0.9375 47.1875 C-10.63912053 39.37121463 -18.43000963 31.55430519 -20.1875 18.8125 C-19.32558968 12.99460532 -17.14973557 8.39893415 -12.625 4.5625 C-7.99322298 1.21185279 -5.73361182 0.10537449 0 0 Z " fill="#FB8081" transform="translate(233.6875,97.5625)"/>
<path d="M0 0 C1.90810673 1.42014293 3.76703322 2.87094265 5.58984375 4.3984375 C4.58984375 6.3984375 4.58984375 6.3984375 2.76953125 7.0390625 C1.62871094 7.34070313 1.62871094 7.34070313 0.46484375 7.6484375 C-8.55764907 10.54648503 -13.73735171 17.40866808 -18.41015625 25.3984375 C-20.45739055 29.85154568 -21.42977573 33.82830666 -21.53515625 38.7109375 C-22.10835171 44.88871075 -26.19023065 48.90243089 -29.96679688 53.56591797 C-32.73855593 57.08500177 -35.30676654 60.75414744 -37.91015625 64.3984375 C-41.75137558 69.73613419 -45.60319661 75.06459194 -49.53515625 80.3359375 C-50.21835938 81.25246094 -50.9015625 82.16898437 -51.60546875 83.11328125 C-53.41015625 85.3984375 -53.41015625 85.3984375 -55.03125 87.0078125 C-56.93034611 88.92304824 -58.06639307 91.20444825 -59.3671875 93.546875 C-60.91330707 96.29167155 -62.54823946 98.85381788 -64.41015625 101.3984375 C-65.07015625 101.3984375 -65.73015625 101.3984375 -66.41015625 101.3984375 C-66.78720703 102.20861328 -66.78720703 102.20861328 -67.171875 103.03515625 C-71.11959484 110.56944806 -76.4120125 117.52598985 -81.41015625 124.3984375 C-88.65545831 121.94438358 -94.39270656 116.4839488 -98.53515625 110.1484375 C-100.07006453 103.57025917 -100.50381435 96.67941181 -98.34765625 90.2109375 C-97.70828125 89.2828125 -97.06890625 88.3546875 -96.41015625 87.3984375 C-95.96929687 86.73457031 -95.5284375 86.07070312 -95.07421875 85.38671875 C-91.92845291 80.74479598 -88.56947612 76.26713003 -85.18823242 71.79589844 C-80.4383003 65.50920125 -75.72549059 59.19578079 -71.16015625 52.7734375 C-70.68223633 52.12294434 -70.20431641 51.47245117 -69.71191406 50.80224609 C-66.99933292 46.93043365 -65.56114308 44.28711008 -66.41015625 39.3984375 C-67.78942398 37.05582142 -67.78942398 37.05582142 -69.41015625 35.3984375 C-68.92804688 34.78355469 -68.4459375 34.16867188 -67.94921875 33.53515625 C-67.31757813 32.72691406 -66.6859375 31.91867188 -66.03515625 31.0859375 C-65.40867188 30.28542969 -64.7821875 29.48492187 -64.13671875 28.66015625 C-62.83258907 26.95180538 -61.60233808 25.18671024 -60.41015625 23.3984375 C-59.17265625 23.6046875 -57.93515625 23.8109375 -56.66015625 24.0234375 C-54.32329682 24.41291407 -52.72723342 24.48365982 -50.43359375 23.8671875 C-47.35129688 21.6298446 -45.69828887 18.49387741 -43.78515625 15.2734375 C-42.38105625 12.92868228 -40.94308905 10.66528407 -39.41015625 8.3984375 C-38.75015625 8.3984375 -38.09015625 8.3984375 -37.41015625 8.3984375 C-37.18328125 7.8415625 -36.95640625 7.2846875 -36.72265625 6.7109375 C-34.04461582 1.99248532 -28.80859115 -3.54349308 -23.515625 -5.19140625 C-14.80272627 -6.88872418 -7.35461065 -4.88718049 0 0 Z " fill="#B8E278" transform="translate(221.41015625,77.6015625)"/>
<path d="M0 0 C4.95 0 9.9 0 15 0 C14.36981581 10.59497175 13.43231364 21.11584211 12.27050781 31.66503906 C11.99653921 34.15647193 11.72843831 36.64849021 11.4609375 39.140625 C11.28679974 40.74222466 11.11233298 42.34378858 10.9375 43.9453125 C10.85830322 44.68178009 10.77910645 45.41824768 10.69750977 46.17703247 C10.38095225 49.0299946 10.03155807 51.84288783 9.46606445 54.65820312 C8.94154918 57.29369316 8.75547395 59.84064335 8.60546875 62.5234375 C8.53908203 63.61140625 8.47269531 64.699375 8.40429688 65.8203125 C8.33275391 66.99335938 8.26121094 68.16640625 8.1875 69.375 C7.4105704 81.20919173 6.12141277 92.89165792 4.49682617 104.63818359 C3.41538811 112.49999916 2.5369565 120.35595635 1.77046204 128.25390625 C1.20050748 134.09341651 0.56984447 139.92267606 -0.11328125 145.75 C-0.20916031 146.57004013 -0.30503937 147.39008026 -0.40382385 148.23497009 C-0.60318016 149.93847167 -0.80267103 151.64195751 -1.00228882 153.34542847 C-3.38534027 173.73792528 -5.42251368 194.15462179 -7.30004883 214.59960938 C-7.75838212 219.56563252 -8.23662557 224.52911659 -8.74359131 229.49041748 C-8.90490352 231.06924975 -9.06211742 232.6485115 -9.21343994 234.22833252 C-9.39579256 236.07270378 -9.61220077 237.91362574 -9.83203125 239.75390625 C-9.93878174 240.69693604 -10.04553223 241.63996582 -10.15551758 242.61157227 C-11.32225191 245.91141672 -13.10971281 247.11545191 -16 249 C-19.0625 249.5625 -19.0625 249.5625 -22 249 C-24.93873977 246.19198709 -25.95537867 244.72741189 -26.20703125 240.625 C-26.07683594 239.42875 -25.94664062 238.2325 -25.8125 237 C-25.69519531 235.80375 -25.57789063 234.6075 -25.45703125 233.375 C-25.19558461 231.4443171 -24.89797518 229.51602469 -24.49609375 227.60961914 C-24.00157235 225.00827108 -23.76561968 222.51297661 -23.60546875 219.87109375 C-23.53924316 218.85539307 -23.47301758 217.83969238 -23.40478516 216.79321289 C-23.33308105 215.68582764 -23.26137695 214.57844238 -23.1875 213.4375 C-22.15311517 198.56898008 -20.50712149 183.79294353 -18.80128479 168.98957825 C-18.18346883 163.62614524 -17.58202211 158.26111087 -16.9921875 152.89453125 C-16.91013565 152.14874817 -16.8280838 151.40296509 -16.74354553 150.63458252 C-16.57824189 149.13185909 -16.41296373 147.62913286 -16.24771118 146.12640381 C-15.19398598 136.54927884 -14.12983441 126.9744775 -12.96484375 117.41015625 C-11.01823723 101.39063234 -9.31987739 85.38461894 -8.03881836 69.29663086 C-6.67561514 52.25792443 -4.57379553 35.32351926 -2.375 18.375 C-2.1430847 16.57814364 -1.91131323 14.78126871 -1.6796875 12.984375 C-1.12144027 8.65603532 -0.56127968 4.32794744 0 0 Z " fill="#8F6954" transform="translate(390,236)"/>
<path d="M0 0 C3.06277267 0.14126626 6.12513542 0.28784396 9.1875 0.4375 C10.05181641 0.47681641 10.91613281 0.51613281 11.80664062 0.55664062 C13.06831055 0.61948242 13.06831055 0.61948242 14.35546875 0.68359375 C15.51018677 0.73858032 15.51018677 0.73858032 16.68823242 0.79467773 C19 1 19 1 21.46069336 1.5065918 C24.11077978 2.02152542 26.57606792 2.15787609 29.2734375 2.2109375 C30.2634375 2.23929688 31.2534375 2.26765625 32.2734375 2.296875 C34.33315569 2.34875707 36.39307859 2.39308769 38.453125 2.4296875 C45.77815454 2.65800011 50.97237924 3.39483795 56.6875 8.3125 C61.45036743 13.84772431 64.4105628 18.34307723 64.2734375 25.81640625 C63.46991264 32.23312621 59.82154468 36.65832205 55.07421875 40.7734375 C49.58391096 44.02006019 43.76032497 44.35621195 37.5625 44.3125 C36.75699707 44.30976074 35.95149414 44.30702148 35.12158203 44.30419922 C21.32565239 44.07692297 7.41648588 42.18122861 -6 39 C-6.5883309 29.55555866 -4.68518508 21.17278215 -2.48730469 12.06298828 C-1.54288483 8.06481804 -0.78051301 4.03265053 0 0 Z " fill="#7DD0ED" transform="translate(373,178)"/>
<path d="M0 0 C17.49 0 34.98 0 53 0 C53.66 4.62 54.32 9.24 55 14 C56.53627032 18.02849576 56.53627032 18.02849576 58.5625 21.1875 C61.98734177 26.96202532 61.98734177 26.96202532 63 30 C64.32407669 30.68486725 65.65909241 31.34870203 67 32 C68.37086915 33.29470975 69.71340837 34.62150897 71 36 C68.65177851 46.2315365 62.01725013 53.40492153 53.5625 59.4375 C46.82357293 63.55242007 39.01409556 67.0999739 31 66 C28.0625 64.8125 28.0625 64.8125 25 63 C24.32453125 62.64808594 23.6490625 62.29617187 22.953125 61.93359375 C17.61475975 58.98190639 16.03881664 56.68722536 14 51 C13.01 50.34 12.02 49.68 11 49 C11.33 48.01 11.66 47.02 12 46 C13.2065625 46.01160156 14.413125 46.02320313 15.65625 46.03515625 C17.27083177 46.04454335 18.88541524 46.05364256 20.5 46.0625 C21.29148437 46.07087891 22.08296875 46.07925781 22.8984375 46.08789062 C33.812832 46.27951684 33.812832 46.27951684 43 41 C43.66 41 44.32 41 45 41 C46.19334591 37.41996227 46.33543224 34.75684104 46 31 C43.91438598 28.60540613 42.6219626 28.09329439 39.5 27.625 C36.5297983 28.07053025 35.3092927 29.13766718 33 31 C31.1875 31.6875 31.1875 31.6875 29 32 C27.515 32.2475 27.515 32.2475 26 32.5 C20.05090119 32.5 14.81206936 28.09742396 10 25 C10.33 24.01 10.66 23.02 11 22 C11.66 22 12.32 22 13 22 C12.67 20.68 12.34 19.36 12 18 C12.66 18 13.32 18 14 18 C14.33 15.69 14.66 13.38 15 11 C11.8377726 9.26830404 8.73257278 8.2871024 5.25 7.375 C3.77273438 6.98441406 3.77273438 6.98441406 2.265625 6.5859375 C1.51796875 6.39257812 0.7703125 6.19921875 0 6 C0 4.02 0 2.04 0 0 Z " fill="#ECBE9C" transform="translate(282,71)"/>
<path d="M0 0 C7.30116747 3.13558728 12.58241034 9.26861554 18 14.875 C26.73500321 23.83499571 35.50334758 31.78149127 45.65625 39.08203125 C46.4296875 39.71496094 47.203125 40.34789062 48 41 C48 41.66 48 42.32 48 43 C48.65355469 43.22429687 49.30710937 43.44859375 49.98046875 43.6796875 C54.01689684 45.44464571 57.59386048 47.77592564 61.3125 50.125 C75.51037796 58.93897317 90.45679207 66.69030684 106.59765625 71.2421875 C110.54706421 72.488017 114.26533307 74.22287588 118 76 C117.69078116 77.45903258 117.37751201 78.91720722 117.0625 80.375 C116.88847656 81.18710938 116.71445312 81.99921875 116.53515625 82.8359375 C116 85 116 85 115 87 C114.33613281 86.71382813 113.67226563 86.42765625 112.98828125 86.1328125 C109.44817782 84.79081251 105.84770771 83.8206996 102.1875 82.875 C101.49462891 82.69324219 100.80175781 82.51148438 100.08789062 82.32421875 C98.39267339 81.87995492 96.69643778 81.4395801 95 81 C95 80.34 95 79.68 95 79 C94.195625 78.9175 93.39125 78.835 92.5625 78.75 C86.88054084 77.55379807 81.8229538 75.21530253 77 72 C77 71.34 77 70.68 77 70 C76.27425781 69.88785156 75.54851562 69.77570313 74.80078125 69.66015625 C71.87436007 68.97038613 69.77712191 67.94489186 67.1875 66.4375 C66.39730469 65.98246094 65.60710937 65.52742188 64.79296875 65.05859375 C64.20128906 64.70925781 63.60960937 64.35992187 63 64 C63 63.34 63 62.68 63 62 C62.41089844 61.89558594 61.82179688 61.79117188 61.21484375 61.68359375 C58.67379923 60.89932075 57.48371353 59.87722595 55.5625 58.0625 C52.85243197 55.62694317 50.54032705 54.07282638 47 53 C47 52.34 47 51.68 47 51 C46.443125 50.773125 45.88625 50.54625 45.3125 50.3125 C42.3678865 48.64123288 40.39147596 46.39147596 38 44 C37.01 43.34 36.02 42.68 35 42 C31.88143016 39.92095344 29.58350893 37.70953375 27 35 C26.38382812 34.40445313 25.76765625 33.80890625 25.1328125 33.1953125 C24.49085938 32.57398438 23.84890625 31.95265625 23.1875 31.3125 C22.58292969 30.73113281 21.97835937 30.14976562 21.35546875 29.55078125 C20 28 20 28 20 26 C19.38125 25.7525 18.7625 25.505 18.125 25.25 C16 24 16 24 15.09765625 22.0859375 C13.80821608 19.6355423 12.65965919 18.80450756 10.3125 17.375 C9.66925781 16.97023438 9.02601563 16.56546875 8.36328125 16.1484375 C2.44683851 13.2733397 -3.00180367 12.72190933 -9.4375 12.875 C-10.53481445 12.88853516 -10.53481445 12.88853516 -11.65429688 12.90234375 C-13.43634298 12.92563847 -15.21821759 12.9614981 -17 13 C-17 13.66 -17 14.32 -17 15 C-18.98689731 16.35278115 -20.98745218 17.68568305 -23 19 C-23.33 19.66 -23.66 20.32 -24 21 C-24.66 21 -25.32 21 -26 21 C-26.65322619 15.7741905 -26.5297481 12.0499251 -23.375 7.6875 C-16.70882387 -0.00778627 -10.1066762 -1.7496504 0 0 Z " fill="#F79A99" transform="translate(241,98)"/>
<path d="M0 0 C7.6502528 -0.09078347 15.30030154 -0.16399215 22.95096397 -0.20724869 C26.50446139 -0.22802189 30.05756754 -0.25614773 33.61083984 -0.30175781 C37.70674143 -0.35399721 41.80223942 -0.37302984 45.8984375 -0.390625 C47.1592514 -0.41127014 48.42006531 -0.43191528 49.71908569 -0.45318604 C58.62623586 -0.45542767 65.26605221 1.11846656 72.875 5.75 C77.28674835 10.42126296 79 14.58173774 79 21 C52.93 21 26.86 21 0 21 C0 14.07 0 7.14 0 0 Z " fill="#8D6955" transform="translate(63,458)"/>
<path d="M0 0 C7.5198983 -0.06809604 15.03967974 -0.12299936 22.55981255 -0.15543652 C26.05268798 -0.17101405 29.54533939 -0.19210496 33.03808594 -0.22631836 C37.06447353 -0.26550694 41.09063015 -0.27977447 45.1171875 -0.29296875 C46.35612762 -0.30845261 47.59506775 -0.32393646 48.87155151 -0.33988953 C57.51469578 -0.34154859 64.95777342 0.45489438 72.375 5.125 C76.65946222 9.81750624 79 14.61807824 79 21 C52.93 21 26.86 21 0 21 C0 14.07 0 7.14 0 0 Z " fill="#916B56" transform="translate(229,458)"/>
<path d="M0 0 C17.82 0 35.64 0 54 0 C54 0.33 54 0.66 54 1 C36.51 1 19.02 1 1 1 C1 2.98 1 4.96 1 7 C1.58007812 7.02578125 2.16015625 7.0515625 2.7578125 7.078125 C8.3708394 7.48567151 11.58877555 8.49364211 16 12 C15.67 14.31 15.34 16.62 15 19 C14.34 19 13.68 19 13 19 C13.33 20.32 13.66 21.64 14 23 C13.34 23.33 12.68 23.66 12 24 C12 24.66 12 25.32 12 26 C20.3820867 31.39376937 20.3820867 31.39376937 30 32 C34.33906459 30.59427705 34.33906459 30.59427705 38 28 C44.0495283 28.44811321 44.0495283 28.44811321 46.9375 30.125 C48.69937187 33.23418565 48.48159369 35.50844577 48 39 C45.75 41.75 45.75 41.75 43 44 C42.44054687 44.52722656 41.88109375 45.05445313 41.3046875 45.59765625 C38.1039919 47.54519815 35.02305883 47.56859715 31.375 47.6875 C30.66730469 47.72093506 29.95960938 47.75437012 29.23046875 47.78881836 C23.82185754 48.02587611 18.41305807 48.11710943 13 48 C13 48.66 13 49.32 13 50 C14.9600281 51.63676257 14.9600281 51.63676257 17 53 C16.67 54.32 16.34 55.64 16 57 C7.71981542 50.61686059 -0.3868115 44.1794312 -8 37 C-8.60457031 36.505 -9.20914062 36.01 -9.83203125 35.5 C-10.21746094 35.005 -10.60289062 34.51 -11 34 C-10.18505655 29.1468669 -7.39247262 24.94234049 -4.97070312 20.72265625 C-1.1588316 13.54819455 -1.28360992 8.98526942 0 0 Z " fill="#DEB698" transform="translate(281,70)"/>
<path d="M0 0 C17.49 0 34.98 0 53 0 C53 1.65 53 3.3 53 5 C50.95292386 7.04707614 47.11827332 6.92795032 44.34765625 7.40234375 C41.82866517 7.83080005 41.82866517 7.83080005 40 10 C39.67045568 13.09771665 39.54665399 15.17331023 41.0625 17.9375 C44.21862905 19.66828045 46.61304721 18.8467382 50 18 C51.92283085 16.58408173 51.92283085 16.58408173 53 15 C53.66 15.33 54.32 15.66 55 16 C55 17.65 55 19.3 55 21 C53.02 21.99 53.02 21.99 51 23 C51 24.32 51 25.64 51 27 C47.71303767 27.79953138 46.28976808 28.09658936 43 27 C39.26189296 27.86264009 35.98183859 29.00843208 32.5 30.625 C28.37285743 32.24637744 26.40114607 32.72149936 22 32 C17.84472573 29.90148209 13.91261504 27.51846485 10 25 C10.33 24.01 10.66 23.02 11 22 C11.66 22 12.32 22 13 22 C12.67 20.68 12.34 19.36 12 18 C12.66 18 13.32 18 14 18 C14.33 15.69 14.66 13.38 15 11 C11.8377726 9.26830404 8.73257278 8.2871024 5.25 7.375 C3.77273438 6.98441406 3.77273438 6.98441406 2.265625 6.5859375 C1.51796875 6.39257812 0.7703125 6.19921875 0 6 C0 4.02 0 2.04 0 0 Z " fill="#EDBF9C" transform="translate(282,71)"/>
<path d="M0 0 C4.06149704 2.99062 7.58367748 6.14441726 10.4296875 10.3515625 C10.4296875 10.6815625 10.4296875 11.0115625 10.4296875 11.3515625 C-13.0003125 11.3515625 -36.4303125 11.3515625 -60.5703125 11.3515625 C-59.1790706 5.7865949 -56.10785735 3.66034316 -51.5703125 0.3515625 C-36.73578606 -8.31854189 -14.77891501 -9.47827072 0 0 Z " fill="#F46565" transform="translate(333.5703125,20.6484375)"/>
<path d="M0 0 C0.94703796 0.00045319 1.89407593 0.00090637 2.86981201 0.00137329 C3.86160965 -0.00198532 4.85340729 -0.00534393 5.8752594 -0.00880432 C9.17171462 -0.0183459 12.46811922 -0.02025902 15.7645874 -0.02133179 C18.04523236 -0.02454208 20.3258771 -0.02790598 22.60652161 -0.03141785 C27.39415973 -0.03741711 32.18177977 -0.03925692 36.96942139 -0.03866577 C43.11794428 -0.03856409 49.26635184 -0.05221889 55.41484737 -0.06943798 C60.12702471 -0.08053158 64.83917393 -0.0825858 69.55136299 -0.08205605 C71.8188676 -0.08324006 74.08637284 -0.08768522 76.35386467 -0.09538841 C79.51941995 -0.10513539 82.68472181 -0.1023313 85.85028076 -0.09628296 C87.26780136 -0.10471222 87.26780136 -0.10471222 88.71395874 -0.11331177 C89.57350662 -0.10911728 90.4330545 -0.10492279 91.31864929 -0.1006012 C92.06768996 -0.10114596 92.81673063 -0.10169073 93.58846951 -0.10225201 C95.42474365 0.14663696 95.42474365 0.14663696 97.42474365 2.14663696 C97.61224365 4.70913696 97.61224365 4.70913696 97.42474365 7.14663696 C95.89787039 8.67351023 94.53744303 8.27562885 92.40766907 8.28034973 C91.54252686 8.28461472 90.67738464 8.2888797 89.786026 8.29327393 C88.8296373 8.29282074 87.8732486 8.29236755 86.88787842 8.29190063 C85.38555161 8.29693855 85.38555161 8.29693855 83.85287476 8.30207825 C80.52395405 8.31161994 77.19508346 8.31353295 73.8661499 8.31460571 C71.5630847 8.317816 69.26001971 8.32117989 66.95695496 8.32469177 C62.12223843 8.33069107 57.28753981 8.33253085 52.45281982 8.3319397 C46.24376324 8.33183802 40.03482085 8.34549286 33.82579136 8.36271191 C29.06729094 8.37380537 24.30881835 8.37585973 19.55030632 8.37532997 C17.26047306 8.376514 14.97063917 8.38095927 12.68081856 8.38866234 C9.48413107 8.39840904 6.28769455 8.39560533 3.09100342 8.38955688 C2.13663895 8.39517639 1.18227448 8.4007959 0.19898987 8.40658569 C-0.66897217 8.4023912 -1.5369342 8.39819672 -2.43119812 8.39387512 C-3.18761313 8.39441989 -3.94402815 8.39496466 -4.72336483 8.39552593 C-6.57525635 8.14663696 -6.57525635 8.14663696 -8.57525635 6.14663696 C-7.78412743 -0.34062016 -6.30878503 0.03140654 0 0 Z " fill="#7CB8CA" transform="translate(263.57525634765625,46.853363037109375)"/>
<path d="M0 0 C6.28090386 0.06904607 12.56115277 0.15709632 18.84155273 0.26245117 C20.97624422 0.29562117 23.11102173 0.32367758 25.24584961 0.34643555 C28.32182331 0.38012717 31.39701426 0.43245103 34.47265625 0.48828125 C35.42084732 0.49467117 36.36903839 0.5010611 37.34596252 0.50764465 C44.3762303 0.66219535 49.33274389 1.63584117 54.75 6.4375 C60 12.41666667 60 12.41666667 60 16 C59.505 16.495 59.505 16.495 59 17 C59.40929986 19.05396726 59.40929986 19.05396726 60 21 C59.0925 20.360625 58.185 19.72125 57.25 19.0625 C52.15363207 15.8282665 47.67374527 15.83634355 41.75 15.625 C33.91003352 15.27873353 26.16137517 14.53549547 18.375 13.5625 C17.38081055 13.4402002 16.38662109 13.31790039 15.36230469 13.19189453 C9.48087837 12.43073384 3.76937427 11.37394377 -2 10 C-1.34 6.7 -0.68 3.4 0 0 Z " fill="#8BDFFB" transform="translate(375,180)"/>
<path d="M0 0 C0.825 0.515625 1.65 1.03125 2.5 1.5625 C5.90761378 3.52187792 8.11358039 3.40204341 12 3 C16.34371373 1.60444947 16.34371373 1.60444947 20 -1 C26.0495283 -0.55188679 26.0495283 -0.55188679 28.9375 1.125 C30.69937187 4.23418565 30.48159369 6.50844577 30 10 C27.75 12.75 27.75 12.75 25 15 C24.44183594 15.52464844 23.88367188 16.04929687 23.30859375 16.58984375 C20.09847049 18.55068046 16.97943979 18.65499272 13.3125 18.8125 C12.59787598 18.84746582 11.88325195 18.88243164 11.14697266 18.91845703 C4.1709964 19.17025731 -1.78364561 18.99695423 -7.4375 14.625 C-11.26153846 10.70769231 -11.26153846 10.70769231 -12 8 C-11.86086022 4.59107551 -11.58408687 2.69641127 -9.375 0.0625 C-5.90301915 -1.49075459 -3.64776792 -0.895943 0 0 Z " fill="#090504" transform="translate(299,99)"/>
<path d="M0 0 C1.90810673 1.42014293 3.76703322 2.87094265 5.58984375 4.3984375 C4.58984375 6.3984375 4.58984375 6.3984375 2.8046875 7.00390625 C2.05316406 7.19597656 1.30164063 7.38804688 0.52734375 7.5859375 C-4.27894297 9.06007017 -7.21849758 11.49627359 -10.78125 14.97265625 C-12.41015625 16.3984375 -12.41015625 16.3984375 -14.41015625 16.3984375 C-14.41015625 15.7384375 -14.41015625 15.0784375 -14.41015625 14.3984375 C-15.07015625 14.1509375 -15.73015625 13.9034375 -16.41015625 13.6484375 C-18.80312888 12.65136557 -20.95330557 11.56684763 -23.22265625 10.3359375 C-27.31050504 8.24140164 -30.84924975 7.72421654 -35.41015625 7.3984375 C-35.08775658 4.22908477 -34.73577985 2.73396851 -32.484375 0.4140625 C-31.69675781 -0.16859375 -30.90914062 -0.75125 -30.09765625 -1.3515625 C-29.31777344 -1.94453125 -28.53789062 -2.5375 -27.734375 -3.1484375 C-18.90327172 -8.66973233 -8.07671294 -5.36702157 0 0 Z " fill="#CAF787" transform="translate(221.41015625,77.6015625)"/>
<path d="M0 0 C33 0 66 0 100 0 C100.495 1.485 100.495 1.485 101 3 C98.73515144 4.13242428 97.47813186 4.13615674 94.96310425 4.15821838 C93.69685715 4.17290161 93.69685715 4.17290161 92.4050293 4.18788147 C91.01320435 4.19651466 91.01320435 4.19651466 89.59326172 4.20532227 C88.61761261 4.21522186 87.6419635 4.22512146 86.63674927 4.23532104 C83.40108698 4.26699311 80.16540999 4.29171602 76.9296875 4.31640625 C74.69051728 4.33697085 72.45135099 4.35796718 70.21218872 4.37937927 C64.31031467 4.43465096 58.40840529 4.48403774 52.50646973 4.53222656 C46.48735397 4.58240441 40.46828971 4.63810985 34.44921875 4.69335938 C22.63285645 4.80100328 10.81644951 4.90243438 -1 5 C-0.67 3.35 -0.34 1.7 0 0 Z " fill="#7FD0F0" transform="translate(257,49)"/>
<path d="M0 0 C4.95 0 9.9 0 15 0 C14.34976546 11.0539871 13.29733565 22.00413567 12 33 C11.67 33 11.34 33 11 33 C10.97284617 31.25008666 10.95353449 29.50005055 10.9375 27.75 C10.92589844 26.77546875 10.91429687 25.8009375 10.90234375 24.796875 C11 22 11 22 12 18 C7.38 18 2.76 18 -2 18 C-1.34 12.06 -0.68 6.12 0 0 Z " fill="#7D5D4B" transform="translate(390,236)"/>
<path d="M0 0 C2.16796875 1.11328125 2.16796875 1.11328125 4 3 C4.54579904 7.38276625 4.17552195 11.56807076 4 16 C-0.95 16 -5.9 16 -11 16 C-11.60773481 5.91160221 -11.60773481 5.91160221 -8.875 1.8125 C-5.49811094 -0.31640832 -3.91736656 -0.6667858 0 0 Z " fill="#916A56" transform="translate(409,150)"/>
<path d="M0 0 C1.04542969 -0.01224609 2.09085937 -0.02449219 3.16796875 -0.03710938 C4.67810547 -0.04000977 4.67810547 -0.04000977 6.21875 -0.04296875 C7.13591797 -0.04707764 8.05308594 -0.05118652 8.99804688 -0.05541992 C11.61817127 0.1989735 13.24956344 0.85928182 15.5 2.1875 C14.48631348 2.17178955 14.48631348 2.17178955 13.45214844 2.15576172 C10.38480358 2.11414024 7.31751822 2.08815427 4.25 2.0625 C3.18652344 2.04574219 2.12304688 2.02898438 1.02734375 2.01171875 C-0.50986328 2.00205078 -0.50986328 2.00205078 -2.078125 1.9921875 C-3.02075195 1.98171387 -3.96337891 1.97124023 -4.93457031 1.96044922 C-7.59951941 2.19630787 -9.21863092 2.83088341 -11.5 4.1875 C-11.5 4.8475 -11.5 5.5075 -11.5 6.1875 C-12.263125 6.579375 -13.02625 6.97125 -13.8125 7.375 C-17.47639684 9.84600019 -18.02728317 12.07939515 -19.5 16.1875 C-24.12 16.1875 -28.74 16.1875 -33.5 16.1875 C-32.18424315 10.92447261 -29.83694101 9.22959891 -25.5 6.1875 C-16.63922361 1.10478471 -10.1140136 0.00623552 0 0 Z " fill="#F57F80" transform="translate(307.5,14.8125)"/>
<path d="M0 0 C19.47 0 38.94 0 59 0 C59 0.33 59 0.66 59 1 C39.86 1 20.72 1 1 1 C1.33 1.99 1.66 2.98 2 4 C1.91232913 6.74607776 1.77043265 9.45091508 1.5625 12.1875 C1.51029297 12.93708984 1.45808594 13.68667969 1.40429688 14.45898438 C1.27486216 16.30637082 1.13813482 18.15324371 1 20 C10.74443165 19.93887365 20.48859358 19.86182942 30.23273277 19.76428509 C34.7570252 19.71949839 39.28122585 19.68026091 43.80566406 19.65356445 C48.16949723 19.62761381 52.53297876 19.58727085 56.896595 19.53681374 C58.5639675 19.52008899 60.23140091 19.50860975 61.89884567 19.50238609 C64.22900276 19.49280543 66.55824877 19.4648212 68.88818359 19.43237305 C69.58229843 19.43380814 70.27641327 19.43524323 70.99156189 19.4367218 C73.11347278 19.42946734 73.11347278 19.42946734 76 19 C76.99 17.515 76.99 17.515 78 16 C78.495 18.475 78.495 18.475 79 21 C52.93 21 26.86 21 0 21 C0 14.07 0 7.14 0 0 Z " fill="#70594E" transform="translate(229,458)"/>
<path d="M0 0 C2.3125 0.125 2.3125 0.125 5 1 C6.875 3.875 6.875 3.875 8 7 C7.67 7.99 7.34 8.98 7 10 C-16.76 10 -40.52 10 -65 10 C-65.33 8.68 -65.66 7.36 -66 6 C-65.67 6.66 -65.34 7.32 -65 8 C-30.35 7.505 -30.35 7.505 5 7 C3.35 4.69 1.7 2.38 0 0 Z " fill="#230303" transform="translate(338,24)"/>
<path d="M0 0 C3.06277267 0.14126626 6.12513542 0.28784396 9.1875 0.4375 C10.05181641 0.47681641 10.91613281 0.51613281 11.80664062 0.55664062 C15.95914122 0.76347016 19.94537862 1.00103531 24 2 C24 2.33 24 2.66 24 3 C16.58165418 3.09377123 9.33763707 3.17402193 2 2 C1.855625 3.27875 1.71125 4.5575 1.5625 5.875 C1.29357254 8.25692894 1.07773654 9.84452691 0 12 C-0.38923527 14.36950521 -0.7380578 16.7457572 -1.0625 19.125 C-1.23910156 20.40632813 -1.41570312 21.68765625 -1.59765625 23.0078125 C-1.73042969 23.99523437 -1.86320312 24.98265625 -2 26 C-2.66 26 -3.32 26 -4 26 C-4 29.96 -4 33.92 -4 38 C0.95 38 5.9 38 11 38 C11.33 39.32 11.66 40.64 12 42 C5.85845775 41.41509121 -0.00679849 40.45933748 -6 39 C-6.74537495 29.59999365 -4.67191593 21.11778404 -2.48730469 12.06298828 C-1.54288483 8.06481804 -0.78051301 4.03265053 0 0 Z " fill="#7FBACD" transform="translate(373,178)"/>
<path d="M0 0 C1.9375 1.0625 1.9375 1.0625 3 3 C3.4375 6.5 3.4375 6.5 3 10 C0.92308202 12.38460953 -0.40556916 12.8959746 -3.5 13.4375 C-6.89834723 12.84278924 -8.01241034 11.79734842 -10 9 C-10.45319325 5.82764724 -10.52990283 3.93512264 -8.9375 1.125 C-5.8930714 -0.64273274 -3.4368988 -0.36823916 0 0 Z " fill="#120907" transform="translate(331,78)"/>
<path d="M0 0 C3.4375 0.75 3.4375 0.75 5.4375 2.75 C5.91133353 6.38272373 5.8966452 8.10379564 3.75 11.125 C1.4375 12.75 1.4375 12.75 -1.0625 13.3125 C-3.5625 12.75 -3.5625 12.75 -5.9375 10.625 C-7.5625 7.75 -7.5625 7.75 -7.5 4.5625 C-6.05388673 0.22416018 -4.45980793 -0.31296898 0 0 Z " fill="#130B09" transform="translate(289.5625,78.25)"/>
<path d="M0 0 C0.33 0 0.66 0 1 0 C2.02396581 5.49019966 1.87345604 10.22667273 1.1875 15.75 C0.99304712 17.42963633 0.79905034 19.10932552 0.60546875 20.7890625 C0.50411621 21.64661133 0.40276367 22.50416016 0.29833984 23.38769531 C0.00311799 25.97269841 -0.26026759 28.55883636 -0.51171875 31.1484375 C-0.59381592 31.9827832 -0.67591309 32.81712891 -0.76049805 33.67675781 C-0.91503932 35.25651306 -1.06647346 36.83657682 -1.21411133 38.41699219 C-1.74868872 43.71953253 -2.74260551 48.82240353 -4 54 C-4.33 54 -4.66 54 -5 54 C-4.60751309 41.52162314 -3.49544325 29.34540435 -1.69921875 16.9921875 C-0.88333641 11.34180238 -0.34869605 5.69937676 0 0 Z " fill="#795E50" transform="translate(374,380)"/>
<path d="M0 0 C0.99 0.33 1.98 0.66 3 1 C2.67 1.66 2.34 2.32 2 3 C1.87913832 5.18474183 1.8225238 7.37313 1.79467773 9.56103516 C1.78477814 10.23432358 1.77487854 10.907612 1.76467896 11.6013031 C1.73304885 13.83052026 1.70830066 16.05975874 1.68359375 18.2890625 C1.66302552 19.83320678 1.64202908 21.37734541 1.62062073 22.92147827 C1.56538651 26.98864167 1.51598322 31.05585599 1.46777344 35.12310791 C1.41756825 39.27222229 1.36187707 43.42126259 1.30664062 47.5703125 C1.19904254 55.71347905 1.09760126 63.85670752 1 72 C0.34 72 -0.32 72 -1 72 C-1 72.99 -1 73.98 -1 75 C-1.66 75 -2.32 75 -3 75 C-2.67657623 74.15468719 -2.35315247 73.30937439 -2.01992798 72.43844604 C-0.93592061 68.78397147 -0.72296933 65.79020918 -0.68115234 61.98486328 C-0.67110672 61.31099075 -0.6610611 60.63711823 -0.65071106 59.94282532 C-0.62004156 57.73532902 -0.60288977 55.52795307 -0.5859375 53.3203125 C-0.56721273 51.78188045 -0.54763835 50.24345853 -0.5272522 48.70504761 C-0.4760631 44.67083728 -0.43636696 40.63659371 -0.39910889 36.60223389 C-0.358986 32.4795315 -0.30793158 28.35696584 -0.2578125 24.234375 C-0.16120992 16.15634363 -0.07675541 8.07824422 0 0 Z " fill="#7AB1C2" transform="translate(135,289)"/>
<path d="M0 0 C0.33 3.63 0.66 7.26 1 11 C0.01 11.66 -0.98 12.32 -2 13 C-3.20450304 15.55183404 -3.20450304 15.55183404 -4 18 C-4.66 18 -5.32 18 -6 18 C-6 18.99 -6 19.98 -6 21 C-6.66 21 -7.32 21 -8 21 C-8 22.98 -8 24.96 -8 27 C-8.66 26.67 -9.32 26.34 -10 26 C-12.09821215 26.39938767 -12.09821215 26.39938767 -14 27 C-12.91751309 25.29113021 -11.83396706 23.58293129 -10.75 21.875 C-10.11449219 20.86824219 -9.47898438 19.86148438 -8.82421875 18.82421875 C-7.46064734 16.71316494 -6.05827878 14.70167142 -4.5625 12.6875 C-2.68520751 9.45855692 -2.4404301 7.67717365 -3 4 C-4.37926773 1.65738392 -4.37926773 1.65738392 -6 0 C-3 -1 -3 -1 0 0 Z " fill="#B3D47F" transform="translate(158,113)"/>
<path d="M0 0 C1.32 0 2.64 0 4 0 C6.1591338 6.87581298 7.35482211 12.78528371 7 20 C2.14321515 15.62889364 0.84010176 11.62140764 0.375 5.1875 C0.30023438 4.21167969 0.22546875 3.23585938 0.1484375 2.23046875 C0.09945313 1.49441406 0.05046875 0.75835937 0 0 Z " fill="#4B3C3E" transform="translate(350,70)"/>
<path d="M0 0 C17.49 0 34.98 0 53 0 C53 1.65 53 3.3 53 5 C52.01 5 51.02 5 50 5 C49.505 3.515 49.505 3.515 49 2 C33.16 2 17.32 2 1 2 C0.67 2.99 0.34 3.98 0 5 C0 3.35 0 1.7 0 0 Z " fill="#E8C2A6" transform="translate(282,71)"/>
<path d="M0 0 C2 2 2 2 2.40625 5.203125 C3.06223845 9.39799852 4.39870717 12.0813494 6.5 15.75 C9.93377483 21.8013245 9.93377483 21.8013245 11 25 C11.66 25.33 12.32 25.66 13 26 C12.34 26.33 11.68 26.66 11 27 C6.77927643 23.23149681 3.2434476 18.8605093 2.75 13.0625 C2.8325 12.381875 2.915 11.70125 3 11 C2.01 10.67 1.02 10.34 0 10 C-0.268125 9.030625 -0.53625 8.06125 -0.8125 7.0625 C-1.204375 6.051875 -1.59625 5.04125 -2 4 C-5.01779872 2.54839062 -5.01779872 2.54839062 -8 2 C-8 1.67 -8 1.34 -8 1 C-1.9453125 0.0234375 -1.9453125 0.0234375 0 0 Z " fill="#CEAE95" transform="translate(334,76)"/>
<path d="M0 0 C4.62 0 9.24 0 14 0 C14 1.65 14 3.3 14 5 C9.05 5 4.1 5 -1 5 C-0.67 3.35 -0.34 1.7 0 0 Z " fill="#8FDFFB" transform="translate(257,49)"/>
<path d="M0 0 C0.99 0 1.98 0 3 0 C3.36263859 5.8022175 2.25684543 9.63999211 0 15 C-1.32 15 -2.64 15 -4 15 C-3.37460064 3.89376997 -3.37460064 3.89376997 0 0 Z " fill="#4F3E41" transform="translate(263,71)"/>
<path d="M0 0 C0.66 0 1.32 0 2 0 C2 0.66 2 1.32 2 2 C2.66 2.33 3.32 2.66 4 3 C-0.66666667 7.66666667 -5.33333333 12.33333333 -10 17 C-10.625 14.125 -10.625 14.125 -11 11 C-10.34 10.34 -9.68 9.68 -9 9 C-8.01 9 -7.02 9 -6 9 C-6 7.35 -6 5.7 -6 4 C-4.68 4.33 -3.36 4.66 -2 5 C-1.34 3.35 -0.68 1.7 0 0 Z " fill="#72B3CA" transform="translate(172,380)"/>
<path d="M0 0 C0.66 0.66 1.32 1.32 2 2 C-0.31 2 -2.62 2 -5 2 C-5 2.99 -5 3.98 -5 5 C-6.32 5.33 -7.64 5.66 -9 6 C-9 8.31 -9 10.62 -9 13 C-7.02 13.66 -5.04 14.32 -3 15 C-3 15.33 -3 15.66 -3 16 C-5.64 16 -8.28 16 -11 16 C-11.7752545 6.16288175 -11.7752545 6.16288175 -8.875 1.8125 C-5.54746829 -0.28529173 -3.86134088 -0.60065303 0 0 Z " fill="#795E50" transform="translate(409,150)"/>
<path d="M0 0 C1.09716797 3.73242188 1.09716797 3.73242188 0.22265625 6.140625 C-0.16019531 6.83671875 -0.54304688 7.5328125 -0.9375 8.25 C-1.31777344 8.95640625 -1.69804688 9.6628125 -2.08984375 10.390625 C-2.39019531 10.92171875 -2.69054687 11.4528125 -3 12 C-3.66 11.34 -4.32 10.68 -5 10 C-6.32 12.97 -7.64 15.94 -9 19 C-10.32 19 -11.64 19 -13 19 C-11.68779266 16.22561876 -10.22517631 13.79209828 -8.3984375 11.328125 C-7.90859375 10.66425781 -7.41875 10.00039063 -6.9140625 9.31640625 C-6.40617187 8.63449219 -5.89828125 7.95257813 -5.375 7.25 C-4.859375 6.55261719 -4.34375 5.85523438 -3.8125 5.13671875 C-2.54440881 3.42244733 -1.2725711 1.71094844 0 0 Z " fill="#70A8BB" transform="translate(126,370)"/>
<path d="M0 0 C0.33 0.66 0.66 1.32 1 2 C0.2884375 3.0828125 0.2884375 3.0828125 -0.4375 4.1875 C-2.31693325 6.98425969 -2.31693325 6.98425969 -1.8125 10.5625 C-2 14 -2 14 -4.75 16.5 C-8.17780124 18.08206211 -8.65746402 18.10449015 -12 17 C-11.30132812 16.02417969 -10.60265625 15.04835937 -9.8828125 14.04296875 C-8.96351652 12.75783049 -8.04424707 11.47267325 -7.125 10.1875 C-6.66480469 9.54490234 -6.20460937 8.90230469 -5.73046875 8.24023438 C-5.28574219 7.61826172 -4.84101563 6.99628906 -4.3828125 6.35546875 C-3.97434082 5.78465576 -3.56586914 5.21384277 -3.14501953 4.62573242 C-2.07137168 3.10133561 -1.0342601 1.55139015 0 0 Z " fill="#E26364" transform="translate(184,165)"/>
<path d="M0 0 C1.04542969 -0.01224609 2.09085937 -0.02449219 3.16796875 -0.03710938 C4.67810547 -0.04000977 4.67810547 -0.04000977 6.21875 -0.04296875 C7.13591797 -0.04707764 8.05308594 -0.05118652 8.99804688 -0.05541992 C11.61817127 0.1989735 13.24956344 0.85928182 15.5 2.1875 C14.87134033 2.16655273 14.24268066 2.14560547 13.5949707 2.12402344 C1.36156437 1.77043738 -8.98947948 1.75078234 -20.5 6.1875 C-22.15936014 6.55548482 -23.82477869 6.90023281 -25.5 7.1875 C-17.28332241 0.55095272 -10.14106007 0.00625219 0 0 Z " fill="#CE7374" transform="translate(307.5,14.8125)"/>
<path d="M0 0 C3.18732254 -0.08797281 6.37432788 -0.14071341 9.5625 -0.1875 C10.45775391 -0.21263672 11.35300781 -0.23777344 12.27539062 -0.26367188 C17.99822407 -0.32656015 21.94646569 0.25741174 27 3 C27.66 3.66 28.32 4.32 29 5 C26.2920887 5 24.30048584 4.66414548 21.6875 4.0625 C16.11512291 2.88546909 10.58717739 2.59074684 4.90625 2.34375 C2 2 2 2 0 0 Z " fill="#86BFD3" transform="translate(400,181)"/>
<path d="M0 0 C4.34037775 0.49514018 7.08612375 3.31113872 10.25 6.0625 C10.80429688 6.53494141 11.35859375 7.00738281 11.9296875 7.49414062 C13.291749 8.65658967 14.64659956 9.82747855 16 11 C14.02 11.99 14.02 11.99 12 13 C11.773125 12.401875 11.54625 11.80375 11.3125 11.1875 C9.66692986 8.4448831 7.72964203 7.58031907 5 6 C5 5.34 5 4.68 5 4 C3.02 4.66 1.04 5.32 -1 6 C-1.66 5.34 -2.32 4.68 -3 4 C-2.01 2.68 -1.02 1.36 0 0 Z " fill="#80C1D6" transform="translate(144,219)"/>
<path d="M0 0 C0.66 0.33 1.32 0.66 2 1 C0.4595731 3.16755722 -1.0822684 5.33408387 -2.625 7.5 C-3.3063501 8.45869995 -3.3063501 8.45869995 -4.00146484 9.43676758 C-6.91474142 13.52291501 -9.89698251 17.53463843 -13.0390625 21.44921875 C-14.26336156 23.1209569 -14.26336156 23.1209569 -14 26 C-14.66 26 -15.32 26 -16 26 C-15.67 24.02 -15.34 22.04 -15 20 C-14.34 20 -13.68 20 -13 20 C-13.33 19.01 -13.66 18.02 -14 17 C-13.01 17 -12.02 17 -11 17 C-11 16.01 -11 15.02 -11 14 C-10.34 14 -9.68 14 -9 14 C-9 13.34 -9 12.68 -9 12 C-8.34 12 -7.68 12 -7 12 C-6.67 10.35 -6.34 8.7 -6 7 C-5.01 6.67 -4.02 6.34 -3 6 C-2.40929986 4.05396726 -2.40929986 4.05396726 -2 2 C-1.34 1.34 -0.68 0.68 0 0 Z " fill="#2E0808" transform="translate(170,182)"/>
<path d="M0 0 C1.0625 1.875 1.0625 1.875 2 4 C1.67 4.66 1.34 5.32 1 6 C0.34 6 -0.32 6 -1 6 C-1.33 13.92 -1.66 21.84 -2 30 C-5.41361579 24.87957632 -4.51800225 18.9750957 -4 13 C-2.95123502 8.54958861 -1.59383071 4.28342004 0 0 Z " fill="#7DBCCE" transform="translate(138,227)"/>
<path d="M0 0 C0.33 1.32 0.66 2.64 1 4 C14.86 4 28.72 4 43 4 C43 4.33 43 4.66 43 5 C27.82 5 12.64 5 -3 5 C-2.01 3.35 -1.02 1.7 0 0 Z " fill="#7FAEC0" transform="translate(74,438)"/>
<path d="M0 0 C0.66 0 1.32 0 2 0 C3.04653773 9.33578099 3.04653773 9.33578099 0.72265625 13.03125 C-3.506978 16.94438101 -7.30422197 18 -13 18 C-13.99 17.34 -14.98 16.68 -16 16 C-14.1746875 15.87625 -14.1746875 15.87625 -12.3125 15.75 C-8.18503799 15.26054875 -6.09073762 13.81802548 -3 11 C-2.34 11 -1.68 11 -1 11 C-0.08307039 8.24921116 0.10886083 6.64051087 0.0625 3.8125 C0.041875 2.554375 0.02125 1.29625 0 0 Z " fill="#D2B098" transform="translate(328,101)"/>
<path d="M0 0 C1.94700642 1.6146196 2.91092828 2.4985077 3.36076355 5.03117371 C3.35410172 5.80616714 3.34743988 6.58116058 3.34057617 7.37963867 C3.34034958 8.26032516 3.34012299 9.14101166 3.33988953 10.04838562 C3.32440567 10.99534805 3.30892181 11.94231049 3.29296875 12.91796875 C3.28872391 13.89034988 3.28447906 14.86273102 3.28010559 15.86457825 C3.26330315 18.97249966 3.22564779 22.07977434 3.1875 25.1875 C3.1724552 27.29361043 3.15876644 29.39973102 3.14648438 31.50585938 C3.11339444 36.67082238 3.06160109 41.83530151 3 47 C2.67 47 2.34 47 2 47 C1.98541748 45.71311279 1.97083496 44.42622559 1.95581055 43.1003418 C1.89788852 38.3310145 1.82065537 33.56216238 1.73754883 28.79321289 C1.70427076 26.7281871 1.67624786 24.66306973 1.65356445 22.59790039 C1.62007145 19.63127568 1.56775855 16.66549252 1.51171875 13.69921875 C1.50213387 12.31158577 1.50213387 12.31158577 1.49235535 10.8959198 C1.47256119 10.03525406 1.45276703 9.17458832 1.43237305 8.2878418 C1.42126999 7.53061325 1.41016693 6.7733847 1.39872742 5.99320984 C0.90194428 3.50982648 -0.08808636 2.59914039 -2 1 C-1.34 0.67 -0.68 0.34 0 0 Z " fill="#00060D" transform="translate(178,321)"/>
<path d="M0 0 C1.32 0 2.64 0 4 0 C4 0.66 4 1.32 4 2 C5.093125 2.268125 6.18625 2.53625 7.3125 2.8125 C12.23392719 4.39736638 12.23392719 4.39736638 14 7 C15.1875 10.1875 15.1875 10.1875 16 13 C12.06014326 11.32651716 8.98587525 8.67405957 5.75 5.9375 C5.19570312 5.47794922 4.64140625 5.01839844 4.0703125 4.54492188 C2.69175775 3.38876943 1.34298593 2.19728462 0 1 C0 0.67 0 0.34 0 0 Z " fill="#D76163" transform="translate(182,229)"/>
<path d="M0 0 C0.33 0.99 0.66 1.98 1 3 C3.00016466 4.20882096 3.00016466 4.20882096 5 5 C4.505 5.37125 4.01 5.7425 3.5 6.125 C1.40244486 8.74694393 1.78256165 10.73842472 2 14 C0.68 14 -0.64 14 -2 14 C-2 15.32 -2 16.64 -2 18 C-2.99 18.33 -3.98 18.66 -5 19 C-4.80664062 18.46632813 -4.61328125 17.93265625 -4.4140625 17.3828125 C-2.41302552 11.65707301 -1.05915756 5.96866438 0 0 Z " fill="#CBAB93" transform="translate(281,74)"/>
<path d="M0 0 C0.33 0.66 0.66 1.32 1 2 C-3.60136502 7.53601728 -8.46398272 12.39863498 -14 17 C-14.66 16.67 -15.32 16.34 -16 16 C-10.72 10.72 -5.44 5.44 0 0 Z " fill="#041219" transform="translate(151,408)"/>
<path d="M0 0 C3.93673644 1.31224548 6.22719294 2.91910327 9 6 C8 7 8 7 5.1875 7.1875 C2.13301456 7.00782439 0.56204656 6.57664404 -2 5 C-1.34 3.35 -0.68 1.7 0 0 Z " fill="#C9EF92" transform="translate(218,77)"/>
<path d="M0 0 C0.33 0.66 0.66 1.32 1 2 C-0.27578 4.36844805 -1.59543649 6.56699462 -3.0625 8.8125 C-3.63774414 9.73772461 -3.63774414 9.73772461 -4.22460938 10.68164062 C-6.98894726 14.96704746 -9.94397741 17.90941675 -14 21 C-12.62416025 18.0884719 -11.04666973 15.51234472 -9.1796875 12.890625 C-8.64472656 12.13652344 -8.10976562 11.38242188 -7.55859375 10.60546875 C-7.00300781 9.82816406 -6.44742188 9.05085937 -5.875 8.25 C-5.31167969 7.45722656 -4.74835938 6.66445312 -4.16796875 5.84765625 C-2.78111545 3.89665924 -1.39172386 1.94752412 0 0 Z " fill="#D36565" transform="translate(169,186)"/>
<path d="M0 0 C5.54110713 3.40991208 10.20968493 7.61420043 15 12 C14.67 12.66 14.34 13.32 14 14 C11.12206249 12.70989008 9.03816083 11.42638194 7 9 C6.67 8.01 6.34 7.02 6 6 C5.360625 5.87625 4.72125 5.7525 4.0625 5.625 C3.381875 5.41875 2.70125 5.2125 2 5 C0.75 2.4375 0.75 2.4375 0 0 Z " fill="#82C2D9" transform="translate(210,273)"/>
<path d="M0 0 C0.66 0.99 1.32 1.98 2 3 C0.43910974 4.41844009 -1.1237889 5.83467025 -2.6875 7.25 C-3.55761719 8.03890625 -4.42773438 8.8278125 -5.32421875 9.640625 C-6.20722656 10.41921875 -7.09023438 11.1978125 -8 12 C-8.87269531 12.77859375 -9.74539063 13.5571875 -10.64453125 14.359375 C-11.81048828 15.17148438 -11.81048828 15.17148438 -13 16 C-13.99 15.67 -14.98 15.34 -16 15 C-15.34773438 14.50371094 -14.69546875 14.00742188 -14.0234375 13.49609375 C-8.70274709 9.36039486 -4.1835559 5.28449166 0 0 Z " fill="#22130E" transform="translate(349,116)"/>
<path d="M0 0 C0.66 0.33 1.32 0.66 2 1 C1.34 3.31 0.68 5.62 0 8 C-1.32 8.33 -2.64 8.66 -4 9 C-4.66 11.31 -5.32 13.62 -6 16 C-7.65 16.33 -9.3 16.66 -11 17 C-10.62488281 16.443125 -10.24976563 15.88625 -9.86328125 15.3125 C-6.47873126 10.26551362 -3.18638454 5.17435011 0 0 Z " fill="#D06162" transform="translate(196,148)"/>
<path d="M0 0 C0 3 0 3 -1.64453125 4.9375 C-2.71767578 5.9584375 -2.71767578 5.9584375 -3.8125 7 C-4.87404297 8.0209375 -4.87404297 8.0209375 -5.95703125 9.0625 C-6.96830078 10.0215625 -6.96830078 10.0215625 -8 11 C-9.00333145 11.99665741 -10.00472061 12.99530157 -11 14 C-11.66 13.67 -12.32 13.34 -13 13 C-11.58791833 11.39179588 -10.17013964 9.78859292 -8.75 8.1875 C-7.96109375 7.29417969 -7.1721875 6.40085937 -6.359375 5.48046875 C-4.34120555 3.35871775 -2.40083295 1.65745577 0 0 Z " fill="#5D5D5D" transform="translate(272,9)"/>
<path d="M0 0 C0.33 0 0.66 0 1 0 C1.19491452 1.45736087 1.38069358 2.91594593 1.5625 4.375 C1.66691406 5.18710937 1.77132813 5.99921875 1.87890625 6.8359375 C2 9 2 9 1 11 C0.96929799 13.76318085 1.0671105 16.51183969 1.16015625 19.2734375 C0.99597258 22.0685644 0.43316308 23.6282556 -1 26 C-1.99867515 19.91017671 -1.86250594 14.60190864 -1.0625 8.5 C-0.96259766 7.67757813 -0.86269531 6.85515625 -0.75976562 6.0078125 C-0.51513083 4.00413701 -0.25879213 2.00189617 0 0 Z " fill="#775F50" transform="translate(377,354)"/>
<path d="M0 0 C2.95409701 1.37154504 5.44008376 2.98863724 8 5 C6.02 5.99 6.02 5.99 4 7 C4 7.33 4 7.66 4 8 C2.35 8 0.7 8 -1 8 C-1 6.35 -1 4.7 -1 3 C-0.67 3.66 -0.34 4.32 0 5 C0.66 5 1.32 5 2 5 C1.34 3.35 0.68 1.7 0 0 Z " fill="#E99797" transform="translate(291,142)"/>
<path d="M0 0 C0.33 3.63 0.66 7.26 1 11 C0.01 11.33 -0.98 11.66 -2 12 C-2.103125 10.7625 -2.20625 9.525 -2.3125 8.25 C-2.73801682 4.7207134 -3.48112592 2.62839034 -6 0 C-3 -1 -3 -1 0 0 Z " fill="#B5D684" transform="translate(158,113)"/>
<path d="M0 0 C0.33 0 0.66 0 1 0 C1 2.64 1 5.28 1 8 C-2.98891525 9.32963842 -6.18462836 8.38405007 -10.1875 7.5625 C-10.93708984 7.41490234 -11.68667969 7.26730469 -12.45898438 7.11523438 C-14.30734174 6.75027209 -16.15386161 6.37602589 -18 6 C-18 5.67 -18 5.34 -18 5 C-11.9981863 4.78175223 -6.80766296 5.4943096 -1 7 C-0.67 4.69 -0.34 2.38 0 0 Z " fill="#3E1817" transform="translate(352,205)"/>
<path d="M0 0 C0.66 0.33 1.32 0.66 2 1 C-1.96 4.96 -5.92 8.92 -10 13 C-10.66 12.67 -11.32 12.34 -12 12 C-8.27653164 7.57905197 -4.70478962 3.42166518 0 0 Z " fill="#6C6B6C" transform="translate(184,62)"/>
<path d="M0 0 C0.6171875 1.84375 0.6171875 1.84375 1 4 C-0.28062485 5.7074998 -1.61767557 7.37373596 -3 9 C-3.77833534 11.18214568 -3.77833534 11.18214568 -4 13 C-4.66 13 -5.32 13 -6 13 C-6.71484375 11.296875 -6.71484375 11.296875 -7 9 C-5.56640625 6.640625 -5.56640625 6.640625 -3.5625 4.25 C-2.57443359 3.05117188 -2.57443359 3.05117188 -1.56640625 1.828125 C-1.04949219 1.22484375 -0.53257813 0.6215625 0 0 Z " fill="#6DA7BB" transform="translate(82,428)"/>
<path d="M0 0 C4.78775956 3.53613714 9.46451416 7.14483704 14 11 C13.01 11.495 13.01 11.495 12 12 C9.875 11.0625 9.875 11.0625 8 10 C8 9.34 8 8.68 8 8 C6.8553125 7.5978125 6.8553125 7.5978125 5.6875 7.1875 C3.09516021 6.04204753 1.69924463 5.23584819 0 3 C0 2.01 0 1.02 0 0 Z " fill="#0A1B24" transform="translate(194,318)"/>
<path d="M0 0 C3.96102341 0.56586049 6.83015311 1.51552541 10 4 C11.3125 7.1875 11.3125 7.1875 12 10 C3.55353075 3.84965831 3.55353075 3.84965831 0 0 Z " fill="#7EBACF" transform="translate(186,311)"/>
<path d="M0 0 C0.66 0.33 1.32 0.66 2 1 C0.89966185 2.60679516 -0.20542664 4.21033793 -1.3125 5.8125 C-1.92738281 6.70582031 -2.54226562 7.59914062 -3.17578125 8.51953125 C-4.67715037 10.56100746 -6.14785401 12.28462787 -8 14 C-8.20086443 10.28400809 -8.1519437 9.22791555 -6 6 C-5.01 6 -4.02 6 -3 6 C-2.67 4.68 -2.34 3.36 -2 2 C-1.34 2 -0.68 2 0 2 C0 1.34 0 0.68 0 0 Z " fill="#210404" transform="translate(180,168)"/>
<path d="M0 0 C0.66 0.33 1.32 0.66 2 1 C2.25 6.625 2.25 6.625 0 10 C-0.38499891 11.65549531 -0.72793135 13.3222433 -1 15 C-1.33 15 -1.66 15 -2 15 C-2.3690205 4.44191344 -2.3690205 4.44191344 0 0 Z " fill="#B1D180" transform="translate(124,166)"/>
<path d="M0 0 C0 0.33 0 0.66 0 1 C-1.134375 1.12375 -2.26875 1.2475 -3.4375 1.375 C-5.2009375 1.684375 -5.2009375 1.684375 -7 2 C-7.33 2.66 -7.66 3.32 -8 4 C-8.66 4 -9.32 4 -10 4 C-9.67 5.98 -9.34 7.96 -9 10 C-9.66 10 -10.32 10 -11 10 C-12.03321725 6.71249056 -12.20141923 5.42202124 -10.6875 2.25 C-7.49362499 -2.00850001 -4.92307149 -0.82051192 0 0 Z " fill="#2E1B13" transform="translate(299,99)"/>
<path d="M0 0 C1.5 1.375 1.5 1.375 3 3 C3 3.66 3 4.32 3 5 C4.423125 5.185625 4.423125 5.185625 5.875 5.375 C9 6 9 6 11 8 C8 9 8 9 5.08203125 7.56640625 C4.00308594 6.90511719 2.92414063 6.24382812 1.8125 5.5625 C0.72582031 4.90378906 -0.36085938 4.24507812 -1.48046875 3.56640625 C-2.31191406 3.04949219 -3.14335937 2.53257812 -4 2 C-2.68 1.34 -1.36 0.68 0 0 Z " fill="#D27578" transform="translate(291,185)"/>
<path d="M0 0 C0.33 0 0.66 0 1 0 C1.07654536 4.51617599 1.10228696 8.59085217 0 13 C0.99 13.33 1.98 13.66 3 14 C3.33 14.99 3.66 15.98 4 17 C5.65 17.33 7.3 17.66 9 18 C9 18.33 9 18.66 9 19 C6.25 19.3125 6.25 19.3125 3 19 C-0.07301656 16.14339306 -0.96690944 14.68362097 -1.171875 10.44921875 C-1.03265625 9.20785156 -0.8934375 7.96648437 -0.75 6.6875 C-0.62109375 5.43324219 -0.4921875 4.17898438 -0.359375 2.88671875 C-0.24078125 1.93410156 -0.1221875 0.98148437 0 0 Z " fill="#614C44" transform="translate(365,466)"/>
<path d="M0 0 C5.35152885 0.32433508 8.28280043 3.49704824 12 7 C11.67 8.32 11.34 9.64 11 11 C10.29875 10.278125 9.5975 9.55625 8.875 8.8125 C6.9024876 6.8286838 4.85610734 5.01682261 2.6875 3.25 C1.800625 2.5075 0.91375 1.765 0 1 C0 0.67 0 0.34 0 0 Z " fill="#0B1D27" transform="translate(217,278)"/>
<path d="M0 0 C0.33 0 0.66 0 1 0 C1.45028522 6.30399313 0.61202629 10.71378634 -3 16 C-3.66 16.33 -4.32 16.66 -5 17 C-4.34122452 12.6520818 -2.72535435 9.02582681 -1 5 C-0.30859478 2.22111387 -0.30859478 2.22111387 0 0 Z " fill="#78B1C2" transform="translate(436,198)"/>
<path d="M0 0 C3.21043882 1.38188453 5.04936365 2.92421903 7.25 5.625 C8.03117188 6.57246094 8.03117188 6.57246094 8.828125 7.5390625 C9.40820312 8.26222656 9.40820312 8.26222656 10 9 C9.01 9 8.02 9 7 9 C7 8.34 7 7.68 7 7 C5.68 7 4.36 7 3 7 C3 6.01 3 5.02 3 4 C2.01 4 1.02 4 0 4 C0 2.68 0 1.36 0 0 Z " fill="#DD6466" transform="translate(233,166)"/>
<path d="M0 0 C0.12375 0.61875 0.2475 1.2375 0.375 1.875 C0.87197356 4.19120832 0.87197356 4.19120832 3 6 C2.01 7.32 1.02 8.64 0 10 C0 9.34 0 8.68 0 8 C-3.11785113 8.64644661 -3.11785113 8.64644661 -4 11 C-4.66 11 -5.32 11 -6 11 C-4.18690997 7.22272911 -2.0926741 3.62730178 0 0 Z " fill="#ADCE7A" transform="translate(133,153)"/>
<path d="M0 0 C3.21524305 1.40844718 5.32183868 3.10344786 7.75 5.625 C8.67039063 6.57246094 8.67039063 6.57246094 9.609375 7.5390625 C10.29773438 8.26222656 10.29773438 8.26222656 11 9 C9 10 9 10 7.0625 9.875 C4.11028973 8.62254716 3.4365711 6.80784352 2 4 C1.608125 3.236875 1.21625 2.47375 0.8125 1.6875 C0.544375 1.130625 0.27625 0.57375 0 0 Z " fill="#D36162" transform="translate(214,148)"/>
<path d="M0 0 C0.33 0.66 0.66 1.32 1 2 C-0.58759644 6.58747193 -2.68985663 10.53706093 -7 13 C-7.66 12.67 -8.32 12.34 -9 12 C-6 8 -3 4 0 0 Z " fill="#330B0C" transform="translate(244,245)"/>
<path d="M0 0 C0.99 0 1.98 0 3 0 C1.53181332 3.10742423 -0.20025 5.90471739 -2.125 8.75 C-2.93324219 9.94882813 -2.93324219 9.94882813 -3.7578125 11.171875 C-4.16773438 11.77515625 -4.57765625 12.3784375 -5 13 C-5.6484375 11.19140625 -5.6484375 11.19140625 -6 9 C-4.4045651 6.94272868 -2.73473712 4.94125344 -1 3 C-0.67 2.01 -0.34 1.02 0 0 Z " fill="#D86467" transform="translate(259,220)"/>
<path d="M0 0 C3.3 0.33 6.6 0.66 10 1 C10.33 1.99 10.66 2.98 11 4 C11.66 4 12.32 4 13 4 C12.67 4.99 12.34 5.98 12 7 C8.04 5.02 4.08 3.04 0 1 C0 0.67 0 0.34 0 0 Z " fill="#D1787C" transform="translate(301,194)"/>
<path d="M0 0 C0.99 0.33 1.98 0.66 3 1 C1.6905332 2.33631236 0.37734515 3.66897925 -0.9375 5 C-1.66839844 5.7425 -2.39929688 6.485 -3.15234375 7.25 C-5 9 -5 9 -6 9 C-6 7.35 -6 5.7 -6 4 C-5.01 4 -4.02 4 -3 4 C-2.67 3.01 -2.34 2.02 -2 1 C-1.34 0.67 -0.68 0.34 0 0 Z " fill="#6BA2B8" transform="translate(153,403)"/>
<path d="M0 0 C0.66 0.33 1.32 0.66 2 1 C0.69144447 2.83615081 -0.62194462 4.66885789 -1.9375 6.5 C-2.66839844 7.5209375 -3.39929688 8.541875 -4.15234375 9.59375 C-4.76207031 10.3878125 -5.37179688 11.181875 -6 12 C-6.33 12 -6.66 12 -7 12 C-7.25 9.6875 -7.25 9.6875 -7 7 C-5.0625 5.375 -5.0625 5.375 -3 4 C-2.67 3.01 -2.34 2.02 -2 1 C-1.34 0.67 -0.68 0.34 0 0 Z " fill="#DA6468" transform="translate(238,251)"/>
<path d="M0 0 C2.39548666 3.02655573 3.59029768 5.10782795 4 9 C3.67 9.66 3.34 10.32 3 11 C3.99 11.33 4.98 11.66 6 12 C4.125 12.625 4.125 12.625 2 13 C0 11 0 11 -0.1953125 8.3984375 C-0.17210937 7.40070313 -0.14890625 6.40296875 -0.125 5.375 C-0.10695313 4.37210938 -0.08890625 3.36921875 -0.0703125 2.3359375 C-0.04710937 1.56507813 -0.02390625 0.79421875 0 0 Z " fill="#E48C90" transform="translate(314,198)"/>
<path d="M0 0 C4.20626034 1.50223584 5.73900021 4.28550034 8 8 C6.68 7.34 5.36 6.68 4 6 C4 5.34 4 4.68 4 4 C1.69 4.33 -0.62 4.66 -3 5 C-2.01 3.35 -1.02 1.7 0 0 Z " fill="#CE6265" transform="translate(204,138)"/>
<path d="M0 0 C1.32 0.33 2.64 0.66 4 1 C-0.9731874 5.08511822 -4.62505604 5.12259508 -11 5 C-11 4.34 -11 3.68 -11 3 C-5.555 2.505 -5.555 2.505 0 2 C0 1.34 0 0.68 0 0 Z " fill="#C4A48E" transform="translate(315,98)"/>
<path d="M0 0 C0.99 0.33 1.98 0.66 3 1 C0.36113346 5.2026393 -2.36440339 8.56638098 -6 12 C-6 11.01 -6 10.02 -6 9 C-5.34 9 -4.68 9 -4 9 C-4 7.35 -4 5.7 -4 4 C-2.68 4 -1.36 4 0 4 C0 2.68 0 1.36 0 0 Z " fill="#DA6566" transform="translate(271,204)"/>
<path d="M0 0 C1.32 0.33 2.64 0.66 4 1 C4 1.66 4 2.32 4 3 C4.9590625 3.1546875 4.9590625 3.1546875 5.9375 3.3125 C6.618125 3.539375 7.29875 3.76625 8 4 C8.33 4.99 8.66 5.98 9 7 C9.66 7 10.32 7 11 7 C10.67 7.99 10.34 8.98 10 10 C8.33037631 8.52417192 6.6643694 7.04425109 5 5.5625 C4.071875 4.73878906 3.14375 3.91507813 2.1875 3.06640625 C1.465625 2.38449219 0.74375 1.70257813 0 1 C0 0.67 0 0.34 0 0 Z " fill="#290709" transform="translate(228,160)"/>
<path d="M0 0 C4.08963819 2.28538605 7.46362104 4.95706926 11 8 C10.01 8.495 10.01 8.495 9 9 C6 8 6 8 4 5 C1.94074861 4.27617533 1.94074861 4.27617533 0 4 C0 2.68 0 1.36 0 0 Z " fill="#280605" transform="translate(213,256)"/>
<path d="M0 0 C0.66 0 1.32 0 2 0 C0.6062718 4.43458973 -1.60582235 6.87378374 -5 10 C-5.33 8.02 -5.66 6.04 -6 4 C-4.33333333 4 -2.66666667 4 -1 4 C-0.67 2.68 -0.34 1.36 0 0 Z " fill="#220506" transform="translate(193,150)"/>
<path d="M0 0 C-0.33 0.99 -0.66 1.98 -1 3 C-1.66 3 -2.32 3 -3 3 C-3.2475 3.639375 -3.495 4.27875 -3.75 4.9375 C-5 7 -5 7 -7.125 7.75 C-8.053125 7.87375 -8.053125 7.87375 -9 8 C-4.67567568 0 -4.67567568 0 0 0 Z " fill="#E19898" transform="translate(226,100)"/>
<path d="M0 0 C4.03520597 1.58962659 8.01811282 3.28232318 12 5 C11.34 6.32 10.68 7.64 10 9 C9.34 8.67 8.68 8.34 8 8 C8 7.34 8 6.68 8 6 C7.4225 5.7525 6.845 5.505 6.25 5.25 C3.6997003 3.83316683 1.98214299 2.12372463 0 0 Z " fill="#C66165" transform="translate(218,259)"/>
<path d="M0 0 C3.43927579 1.2419607 6.25207819 2.55740284 9 5 C9 5.66 9 6.32 9 7 C10.32 7.66 11.64 8.32 13 9 C12.67 9.66 12.34 10.32 12 11 C9.99702215 9.35767739 7.99756092 7.71138756 6 6.0625 C5.42765625 5.59392578 4.8553125 5.12535156 4.265625 4.64257812 C2.82502935 3.45065672 1.41025129 2.22767412 0 1 C0 0.67 0 0.34 0 0 Z " fill="#D16766" transform="translate(205,248)"/>
<path d="M0 0 C0.66 0 1.32 0 2 0 C0.34832443 3.5786304 -1.78286492 6.74820188 -4 10 C-4.99 9.67 -5.98 9.34 -7 9 C-6 6 -6 6 -3 4 C-2.34 3.01 -1.68 2.02 -1 1 C-0.67 0.67 -0.34 0.34 0 0 Z " fill="#ABC77F" transform="translate(144,192)"/>
<path d="M0 0 C2.31 1.65 4.62 3.3 7 5 C5 6 3 7 1 8 C1 7.34 1 6.68 1 6 C0.34 5.67 -0.32 5.34 -1 5 C-0.34 5 0.32 5 1 5 C0.67 3.35 0.34 1.7 0 0 Z " fill="#7DC5DB" transform="translate(233,292)"/>
<path d="M0 0 C0.33 0.66 0.66 1.32 1 2 C0.26418258 3.1549921 -0.48930039 4.29874185 -1.25 5.4375 C-1.66765625 6.07558594 -2.0853125 6.71367187 -2.515625 7.37109375 C-4.27248877 9.29902057 -5.46089803 9.61479436 -8 10 C-8.33 8.35 -8.66 6.7 -9 5 C-8.34 5 -7.68 5 -7 5 C-6.34 5.66 -5.68 6.32 -5 7 C-3.35 4.69 -1.7 2.38 0 0 Z " fill="#2C0908" transform="translate(233,260)"/>
<path d="M0 0 C3.7952131 1.49097658 5.61042731 3.75700849 8 7 C5.36 6.34 2.72 5.68 0 5 C0 3.35 0 1.7 0 0 Z " fill="#D96264" transform="translate(225,159)"/>
<path d="M0 0 C2.24973447 -0.054138 4.49984383 -0.09285491 6.75 -0.125 C8.00296875 -0.14820312 9.2559375 -0.17140625 10.546875 -0.1953125 C13.72820492 -0.01537302 15.36521896 0.31001418 18 2 C18 2.66 18 3.32 18 4 C16.88625 3.5359375 16.88625 3.5359375 15.75 3.0625 C10.55297775 1.59001036 5.37512737 1.33050945 0 1 C0 0.67 0 0.34 0 0 Z " fill="#482726" transform="translate(229,97)"/>
<path d="M0 0 C3.94139078 1.66751148 6.7892812 4.22710649 10 7 C7 8 7 8 4.4375 6.875 C1.69066641 4.76205109 0.97359387 3.27481575 0 0 Z " fill="#7CBBD0" transform="translate(256,312)"/>
<path d="M0 0 C1.29608947 0.93137592 2.58671632 1.8703566 3.875 2.8125 C4.59429687 3.33457031 5.31359375 3.85664063 6.0546875 4.39453125 C8 6 8 6 10 9 C5.06789169 7.76697292 2.78225429 6.28039122 0 2 C0 1.34 0 0.68 0 0 Z " fill="#81BFD5" transform="translate(177,245)"/>
<path d="M0 0 C4.81033104 2.54664585 8.32442148 4.99027798 12 9 C8.12697862 7.85569823 4.99736561 6.76679902 2 4 C2 3.34 2 2.68 2 2 C1.34 2 0.68 2 0 2 C0 1.34 0 0.68 0 0 Z " fill="#D76467" transform="translate(243,175)"/>
<path d="M0 0 C0.66 0.33 1.32 0.66 2 1 C-0.78999451 4.48749314 -3.25235831 7.50157221 -7 10 C-6.67 8.35 -6.34 6.7 -6 5 C-5.34 5 -4.68 5 -4 5 C-4 4.34 -4 3.68 -4 3 C-2 1.375 -2 1.375 0 0 Z " fill="#646363" transform="translate(248,34)"/>
<path d="M0 0 C-1.44253657 3.36591866 -3.33264727 5.51047079 -6 8 C-6.99 7.67 -7.98 7.34 -9 7 C-7.88121617 5.82737096 -6.75476949 4.66204862 -5.625 3.5 C-4.68527344 2.52546875 -4.68527344 2.52546875 -3.7265625 1.53125 C-2 0 -2 0 0 0 Z " fill="#0B1B25" transform="translate(132,429)"/>
<path d="M0 0 C0.66 1.32 1.32 2.64 2 4 C0.8803014 5.00593243 -0.2459412 6.0045849 -1.375 7 C-2.00148438 7.556875 -2.62796875 8.11375 -3.2734375 8.6875 C-5 10 -5 10 -7 10 C-7 9.34 -7 8.68 -7 8 C-6.34 8 -5.68 8 -5 8 C-5 7.34 -5 6.68 -5 6 C-4.34 6 -3.68 6 -3 6 C-2.690625 5.195625 -2.38125 4.39125 -2.0625 3.5625 C-1 1 -1 1 0 0 Z " fill="#494849" transform="translate(66,423)"/>
<path d="M0 0 C2.76276177 0.52268466 5.3260876 1.10869587 8 2 C8.33 3.65 8.66 5.3 9 7 C2.57142857 2.85714286 2.57142857 2.85714286 0 0 Z " fill="#79B9CC" transform="translate(157,288)"/>
<path d="M0 0 C1.0625 1.875 1.0625 1.875 2 4 C1.67 4.66 1.34 5.32 1 6 C0.34 6 -0.32 6 -1 6 C-1 8.31 -1 10.62 -1 13 C-1.66 12.67 -2.32 12.34 -3 12 C-2.49202991 7.6822542 -1.80317221 3.96697886 0 0 Z " fill="#77B4C6" transform="translate(138,227)"/>
<path d="M0 0 C6.875 3.625 6.875 3.625 8 7 C8.66 7.33 9.32 7.66 10 8 C9.01 8 8.02 8 7 8 C6.67 7.34 6.34 6.68 6 6 C4.02111039 5.27306096 2.02045442 4.60183749 0 4 C0 2.68 0 1.36 0 0 Z " fill="#2F0A0A" transform="translate(156,208)"/>
<path d="M0 0 C1.65 0.33 3.3 0.66 5 1 C4.67 1.99 4.34 2.98 4 4 C3.01 3.34 2.02 2.68 1 2 C0.566875 2.928125 0.566875 2.928125 0.125 3.875 C-1 6 -1 6 -3 8 C-3.33 7.01 -3.66 6.02 -4 5 C-3.01 4.67 -2.02 4.34 -1 4 C-0.26676204 1.98491642 -0.26676204 1.98491642 0 0 Z " fill="#29090A" transform="translate(203,136)"/>
<path d="M0 0 C3.26460973 1.80412643 4.88929795 2.83394693 7 6 C6.01 6.495 6.01 6.495 5 7 C4.01 6.67 3.02 6.34 2 6 C0.8125 2.9375 0.8125 2.9375 0 0 Z " fill="#816657" transform="translate(297,461)"/>
<path d="M0 0 C1.48828125 1.11328125 1.48828125 1.11328125 3 3 C3.29296875 5.91796875 3.29296875 5.91796875 3.1875 9.1875 C3.14689453 10.81751953 3.14689453 10.81751953 3.10546875 12.48046875 C3.07066406 13.31191406 3.03585938 14.14335937 3 15 C2.67 15 2.34 15 2 15 C1.96261719 14.24074219 1.92523438 13.48148437 1.88671875 12.69921875 C1.82097656 11.70535156 1.75523437 10.71148437 1.6875 9.6875 C1.62949219 8.70136719 1.57148438 7.71523438 1.51171875 6.69921875 C0.95377187 3.75615543 0.31459868 2.81817001 -2 1 C-1.34 0.67 -0.68 0.34 0 0 Z " fill="#051019" transform="translate(178,321)"/>
<path d="M0 0 C2.475 0.495 2.475 0.495 5 1 C5 1.66 5 2.32 5 3 C5.66 3 6.32 3 7 3 C7 3.66 7 4.32 7 5 C7.66 5 8.32 5 9 5 C8.67 5.66 8.34 6.32 8 7 C6.66382648 6.02471263 5.3311249 5.04466681 4 4.0625 C3.2575 3.51722656 2.515 2.97195312 1.75 2.41015625 C1.1725 1.94480469 0.595 1.47945312 0 1 C0 0.67 0 0.34 0 0 Z " fill="#091826" transform="translate(167,236)"/>
<path d="M0 0 C0.66 0.33 1.32 0.66 2 1 C1.24266726 2.3410477 0.46867264 3.67269781 -0.3125 5 C-0.74175781 5.7425 -1.17101562 6.485 -1.61328125 7.25 C-2.07089844 7.8275 -2.52851563 8.405 -3 9 C-3.99 9 -4.98 9 -6 9 C-4.02 6.03 -2.04 3.06 0 0 Z " fill="#15210A" transform="translate(197,122)"/>
<path d="M0 0 C0.66 0.33 1.32 0.66 2 1 C-2.30769231 6.78461538 -2.30769231 6.78461538 -5.8125 7.875 C-6.8953125 7.936875 -6.8953125 7.936875 -8 8 C-3.375 2.25 -3.375 2.25 0 0 Z " fill="#132109" transform="translate(217,86)"/>
<path d="M0 0 C1.98 0.66 3.96 1.32 6 2 C6 2.66 6 3.32 6 4 C7.32 4.33 8.64 4.66 10 5 C9.67 5.99 9.34 6.98 9 8 C7.49712782 6.85793642 5.99776716 5.71125043 4.5 4.5625 C3.6646875 3.92441406 2.829375 3.28632813 1.96875 2.62890625 C1.3190625 2.09136719 0.669375 1.55382812 0 1 C0 0.67 0 0.34 0 0 Z " fill="#0A1B27" transform="translate(150,222)"/>
<path d="M0 0 C2.78211944 0.37596209 4.5879284 0.67318459 6.8125 2.4375 C8 4 8 4 8 6 C4.63408134 4.55746343 2.48952921 2.66735273 0 0 Z " fill="#AECE80" transform="translate(129,194)"/>
<path d="M0 0 C0.66 0.33 1.32 0.66 2 1 C0.68775452 4.93673644 -0.91910327 7.22719294 -4 10 C-3.42415568 7.61435923 -2.77772405 5.33317216 -2 3 C-1.34 3 -0.68 3 0 3 C0 2.01 0 1.02 0 0 Z " fill="#AECC7B" transform="translate(185,134)"/>
<path d="M0 0 C1 3 1 3 0.3125 5.625 C-0.3371875 6.800625 -0.3371875 6.800625 -1 8 C-2.32 8.33 -3.64 8.66 -5 9 C-3.35 6.03 -1.7 3.06 0 0 Z " fill="#ACC97C" transform="translate(155,123)"/>
<path d="M0 0 C1.32 0.66 2.64 1.32 4 2 C3 4 3 4 -0.0625 5.125 C-1.031875 5.41375 -2.00125 5.7025 -3 6 C-1.125 1.125 -1.125 1.125 0 0 Z " fill="#BBCD95" transform="translate(161,101)"/>
<path d="M0 0 C0.66 0 1.32 0 2 0 C3.15957207 3.47871621 2.77456651 4.34219645 1.5625 7.6875 C1.27503906 8.49574219 0.98757812 9.30398437 0.69140625 10.13671875 C0.34916016 11.05904297 0.34916016 11.05904297 0 12 C-0.33 12 -0.66 12 -1 12 C-1.14285714 3.42857143 -1.14285714 3.42857143 0 0 Z " fill="#B1D181" transform="translate(200,100)"/>
<path d="M0 0 C0 1.98 0 3.96 0 6 C-0.556875 5.525625 -1.11375 5.05125 -1.6875 4.5625 C-4.18346074 2.87604004 -6.0446237 2.41046893 -9 2 C-9 1.67 -9 1.34 -9 1 C-1.125 0 -1.125 0 0 0 Z " fill="#CFAE96" transform="translate(335,76)"/>
<path d="M0 0 C0.66 0.33 1.32 0.66 2 1 C-1.625 6.875 -1.625 6.875 -5 8 C-4.34 6.35 -3.68 4.7 -3 3 C-2.34 3 -1.68 3 -1 3 C-0.67 2.01 -0.34 1.02 0 0 Z " fill="#0D1B25" transform="translate(160,398)"/>
<path d="M0 0 C2 3 2 3 1.7578125 5.48046875 C1.54898437 6.37378906 1.34015625 7.26710938 1.125 8.1875 C0.92132813 9.08855469 0.71765625 9.98960937 0.5078125 10.91796875 C0.34023438 11.60503906 0.17265625 12.29210937 0 13 C-0.33 13 -0.66 13 -1 13 C-1.07654536 8.48382401 -1.10228696 4.40914783 0 0 Z " fill="#271712" transform="translate(388,392)"/>
<path d="M0 0 C0.33 0 0.66 0 1 0 C1.08153933 1.58246707 1.13943557 3.16616273 1.1875 4.75 C1.23970703 6.07257813 1.23970703 6.07257813 1.29296875 7.421875 C0.94923684 10.44671583 -0.00227459 11.75583602 -2 14 C-2.042721 12.33388095 -2.04063832 10.66617115 -2 9 C-1.67 8.67 -1.34 8.34 -1 8 C-0.76924918 6.65252916 -0.58846937 5.29622435 -0.4375 3.9375 C-0.293125 2.638125 -0.14875 1.33875 0 0 Z " fill="#77ADBF" transform="translate(178,368)"/>
<path d="M0 0 C0.33 0.99 0.66 1.98 1 3 C-1.3125 6.1875 -1.3125 6.1875 -4 9 C-4.66 9 -5.32 9 -6 9 C-4.47291037 5.56404834 -2.40072955 2.88087546 0 0 Z " fill="#2A0807" transform="translate(251,236)"/>
<path d="M0 0 C0.99 0 1.98 0 3 0 C2.39816251 2.02045442 1.72693904 4.02111039 1 6 C0.01 6.495 0.01 6.495 -1 7 C-1.625 5.1875 -1.625 5.1875 -2 3 C-1.34 2.01 -0.68 1.02 0 0 Z " fill="#B7DA81" transform="translate(147,185)"/>
<path d="M0 0 C1 2 1 2 0.375 4.5 C-1 7 -1 7 -3.625 8.3125 C-4.40875 8.539375 -5.1925 8.76625 -6 9 C-4.16172132 5.84866512 -2.24027294 2.88035092 0 0 Z " fill="#C55B5D" transform="translate(178,174)"/>
<path d="M0 0 C0.268125 0.598125 0.53625 1.19625 0.8125 1.8125 C1.98493467 3.97224808 3.19369282 5.35790256 5 7 C4.01 7.495 4.01 7.495 3 8 C1.35 6.35 -0.3 4.7 -2 3 C-1.34 2.01 -0.68 1.02 0 0 Z " fill="#DC7B7E" transform="translate(260,163)"/>
<path d="M0 0 C1.32 0 2.64 0 4 0 C4 0.99 4 1.98 4 3 C4.66 3 5.32 3 6 3 C6.33 4.32 6.66 5.64 7 7 C3.17053157 5.54744301 1.87949705 3.57104439 0 0 Z " fill="#DA7B80" transform="translate(240,150)"/>
<path d="M0 0 C3.26460973 1.80412643 4.88929795 2.83394693 7 6 C5.35 6.33 3.7 6.66 2 7 C2 5.35 2 3.7 2 2 C1.34 2 0.68 2 0 2 C0 1.34 0 0.68 0 0 Z " fill="#DD6266" transform="translate(334,22)"/>
<path d="M0 0 C0.78375 0.04125 1.5675 0.0825 2.375 0.125 C-0.24014317 2.24538635 -2.82137616 4.25591744 -5.625 6.125 C-4.86443086 2.32215429 -4.27658992 0.20364714 0 0 Z " fill="#230809" transform="translate(281.625,19.875)"/>
<path d="M0 0 C2.97 0.495 2.97 0.495 6 1 C6.33 2.65 6.66 4.3 7 6 C1.125 2.25 1.125 2.25 0 0 Z " fill="#D16060" transform="translate(198,242)"/>
<path d="M0 0 C1.65 0 3.3 0 5 0 C5.12375 0.639375 5.2475 1.27875 5.375 1.9375 C5.684375 2.9584375 5.684375 2.9584375 6 4 C6.66 4.33 7.32 4.66 8 5 C5 5 5 5 2.3125 2.5 C1.549375 1.675 0.78625 0.85 0 0 Z " fill="#D76265" transform="translate(175,223)"/>
<path d="M0 0 C0.33 0.99 0.66 1.98 1 3 C0.01 4.485 0.01 4.485 -1 6 C-1.66 6 -2.32 6 -3 6 C-3 6.99 -3 7.98 -3 9 C-3.66 9 -4.32 9 -5 9 C-3.7508258 5.54074837 -2.32472205 2.85306797 0 0 Z " fill="#340B0A" transform="translate(277,200)"/>
<path d="M0 0 C2.475 0.495 2.475 0.495 5 1 C5.33 2.32 5.66 3.64 6 5 C6.66 5 7.32 5 8 5 C7.67 5.66 7.34 6.32 7 7 C5.83040013 6.02433888 4.66438823 5.044375 3.5 4.0625 C2.8503125 3.51722656 2.200625 2.97195312 1.53125 2.41015625 C1.0259375 1.94480469 0.520625 1.47945312 0 1 C0 0.67 0 0.34 0 0 Z " fill="#350A0B" transform="translate(239,170)"/>
<path d="M0 0 C2.97 0.99 5.94 1.98 9 3 C4.59232396 4.10191901 3.1077065 3.58706842 -1 2 C-0.67 1.34 -0.34 0.68 0 0 Z " fill="#CA878A" transform="translate(342,168)"/>
<path d="M0 0 C0.33 0 0.66 0 1 0 C2.12029814 5.48946087 1.79217969 8.83430559 0 14 C-0.33 14 -0.66 14 -1 14 C-1.08333357 9.1666528 -0.95261487 4.76307437 0 0 Z " fill="#332117" transform="translate(393,346)"/>
<path d="M0 0 C1.9375 0.75 1.9375 0.75 4 2 C4.75 4.125 4.75 4.125 5 6 C3.0625 5.25 3.0625 5.25 1 4 C0.25 1.875 0.25 1.875 0 0 Z " fill="#0A1925" transform="translate(223,343)"/>
<path d="M0 0 C1.32 0.33 2.64 0.66 4 1 C4 1.66 4 2.32 4 3 C5.32 3.33 6.64 3.66 8 4 C7.67 4.99 7.34 5.98 7 7 C5.83040013 6.02433888 4.66438823 5.044375 3.5 4.0625 C2.8503125 3.51722656 2.200625 2.97195313 1.53125 2.41015625 C1.0259375 1.94480469 0.520625 1.47945313 0 1 C0 0.67 0 0.34 0 0 Z " fill="#0C1E2A" transform="translate(209,271)"/>
<path d="M0 0 C0 0.66 0 1.32 0 2 C-2.31 3.32 -4.62 4.64 -7 6 C-7 5.01 -7 4.02 -7 3 C-6.34 3 -5.68 3 -5 3 C-5 2.34 -5 1.68 -5 1 C-3 0 -3 0 0 0 Z " fill="#240B0B" transform="translate(226,98)"/>
<path d="M0 0 C0.33 0 0.66 0 1 0 C2 6.625 2 6.625 2 10 C1.01 9.34 0.02 8.68 -1 8 C-0.67 5.36 -0.34 2.72 0 0 Z " fill="#AC927F" transform="translate(335,78)"/>
<path d="M0 0 C0.99 0.33 1.98 0.66 3 1 C1.35 2.65 -0.3 4.3 -2 6 C-2.66 5.67 -3.32 5.34 -4 5 C-2.68 3.35 -1.36 1.7 0 0 Z " fill="#4E4D4D" transform="translate(176,69)"/>
<path d="M0 0 C2.475 0.495 2.475 0.495 5 1 C5.66 3.31 6.32 5.62 7 8 C4.35247996 5.42215154 2.05567935 3.08351902 0 0 Z " fill="#270504" transform="translate(338,24)"/>
</svg>
